<mxfile host="app.diagrams.net" modified="2021-08-18T13:17:20.165Z" agent="5.0 (Windows)" etag="MuGWlfQWARL2DIh0AsxZ" version="14.9.3" type="github">
  <diagram id="as2l2faawCCHXGkoGRLd" name="Final version">
    <mxGraphModel dx="1422" dy="814" grid="1" gridSize="10" guides="1" tooltips="1" connect="1" arrows="1" fold="1" page="1" pageScale="1" pageWidth="1169" pageHeight="827" math="0" shadow="0">
      <root>
        <mxCell id="CbDLqZds7CBD2YCKXWCp-0" />
        <mxCell id="CbDLqZds7CBD2YCKXWCp-1" parent="CbDLqZds7CBD2YCKXWCp-0" />
        <mxCell id="YnXIAvcI8itFQvQeR9OT-1" value="" style="endArrow=none;html=1;fontFamily=Roboto;fontSource=https%3A%2F%2Ffonts.googleapis.com%2Fcss%3Ffamily%3DRoboto;entryX=0.5;entryY=0;entryDx=0;entryDy=0;endSize=6;startSize=6;arcSize=20;" parent="CbDLqZds7CBD2YCKXWCp-1" target="YnXIAvcI8itFQvQeR9OT-0" edge="1">
          <mxGeometry width="50" height="50" relative="1" as="geometry">
            <mxPoint x="530" y="700" as="sourcePoint" />
            <mxPoint x="640" y="720" as="targetPoint" />
          </mxGeometry>
        </mxCell>
        <mxCell id="4-UfjcnXdsVet0wkfiN8-3" value="" style="endArrow=none;html=1;entryX=0.5;entryY=1;entryDx=0;entryDy=0;fontFamily=Roboto;fontSource=https%3A%2F%2Ffonts.googleapis.com%2Fcss%3Ffamily%3DRoboto;" parent="CbDLqZds7CBD2YCKXWCp-1" edge="1">
          <mxGeometry x="430.05" y="502" width="50" height="50" as="geometry">
            <mxPoint x="500.05" y="492" as="sourcePoint" />
            <mxPoint x="500.05" y="512" as="targetPoint" />
          </mxGeometry>
        </mxCell>
        <mxCell id="CbDLqZds7CBD2YCKXWCp-2" value="" style="endArrow=none;html=1;entryX=1;entryY=0.5;entryDx=0;entryDy=0;fontFamily=Roboto;fontSource=https%3A%2F%2Ffonts.googleapis.com%2Fcss%3Ffamily%3DRoboto;" parent="CbDLqZds7CBD2YCKXWCp-1" target="CbDLqZds7CBD2YCKXWCp-139" edge="1">
          <mxGeometry x="-30" y="450" width="50" height="50" as="geometry">
            <mxPoint x="125" y="480" as="sourcePoint" />
            <mxPoint x="120" y="495" as="targetPoint" />
          </mxGeometry>
        </mxCell>
        <mxCell id="CbDLqZds7CBD2YCKXWCp-3" value="" style="endArrow=none;html=1;entryX=0.5;entryY=1;entryDx=0;entryDy=0;fontFamily=Roboto;fontSource=https%3A%2F%2Ffonts.googleapis.com%2Fcss%3Ffamily%3DRoboto;" parent="CbDLqZds7CBD2YCKXWCp-1" edge="1">
          <mxGeometry x="170" y="280" width="50" height="50" as="geometry">
            <mxPoint x="240" y="270.0000000000002" as="sourcePoint" />
            <mxPoint x="240" y="290.0000000000001" as="targetPoint" />
          </mxGeometry>
        </mxCell>
        <mxCell id="CbDLqZds7CBD2YCKXWCp-4" value="&lt;div&gt;Numero&lt;/div&gt;&lt;div&gt;articoli&lt;br&gt;&lt;/div&gt;" style="text;html=1;strokeColor=none;fillColor=none;align=center;verticalAlign=middle;whiteSpace=wrap;rounded=0;fontFamily=Roboto;fontSource=https%3A%2F%2Ffonts.googleapis.com%2Fcss%3Ffamily%3DRoboto;rotation=0;" parent="CbDLqZds7CBD2YCKXWCp-1" vertex="1">
          <mxGeometry x="220" y="315" width="40" height="20" as="geometry" />
        </mxCell>
        <mxCell id="CbDLqZds7CBD2YCKXWCp-5" value="" style="ellipse;whiteSpace=wrap;html=1;aspect=fixed;fontFamily=Roboto;fontSource=https%3A%2F%2Ffonts.googleapis.com%2Fcss%3Ffamily%3DRoboto;rotation=-180;" parent="CbDLqZds7CBD2YCKXWCp-1" vertex="1">
          <mxGeometry x="320" y="389" width="20" height="20" as="geometry" />
        </mxCell>
        <mxCell id="CbDLqZds7CBD2YCKXWCp-6" value="&lt;div&gt;Prezzo&lt;/div&gt;&lt;div&gt;unitario&lt;/div&gt;&lt;div&gt;acquisto&lt;br&gt;&lt;/div&gt;" style="text;html=1;strokeColor=none;fillColor=none;align=center;verticalAlign=middle;whiteSpace=wrap;rounded=0;fontFamily=Roboto;fontSource=https%3A%2F%2Ffonts.googleapis.com%2Fcss%3Ffamily%3DRoboto;rotation=0;" parent="CbDLqZds7CBD2YCKXWCp-1" vertex="1">
          <mxGeometry x="310" y="419" width="40" height="20" as="geometry" />
        </mxCell>
        <mxCell id="CbDLqZds7CBD2YCKXWCp-7" value="" style="endArrow=none;html=1;entryX=0.5;entryY=1;entryDx=0;entryDy=0;fontFamily=Roboto;fontSource=https%3A%2F%2Ffonts.googleapis.com%2Fcss%3Ffamily%3DRoboto;" parent="CbDLqZds7CBD2YCKXWCp-1" target="CbDLqZds7CBD2YCKXWCp-5" edge="1">
          <mxGeometry x="260" y="379" width="50" height="50" as="geometry">
            <mxPoint x="330" y="369" as="sourcePoint" />
            <mxPoint x="-130" y="429" as="targetPoint" />
          </mxGeometry>
        </mxCell>
        <mxCell id="CbDLqZds7CBD2YCKXWCp-8" value="" style="ellipse;whiteSpace=wrap;html=1;aspect=fixed;fontFamily=Roboto;fontSource=https%3A%2F%2Ffonts.googleapis.com%2Fcss%3Ffamily%3DRoboto;" parent="CbDLqZds7CBD2YCKXWCp-1" vertex="1">
          <mxGeometry x="490.13" y="430" width="20" height="20" as="geometry" />
        </mxCell>
        <mxCell id="CbDLqZds7CBD2YCKXWCp-9" value="" style="endArrow=none;html=1;entryX=0.5;entryY=1;entryDx=0;entryDy=0;fontFamily=Roboto;fontSource=https%3A%2F%2Ffonts.googleapis.com%2Fcss%3Ffamily%3DRoboto;" parent="CbDLqZds7CBD2YCKXWCp-1" target="CbDLqZds7CBD2YCKXWCp-8" edge="1">
          <mxGeometry x="480.13" y="410" width="50" height="50" as="geometry">
            <mxPoint x="500.13" y="470" as="sourcePoint" />
            <mxPoint x="920.13" y="410" as="targetPoint" />
          </mxGeometry>
        </mxCell>
        <mxCell id="CbDLqZds7CBD2YCKXWCp-10" value="&lt;div&gt;Codice&lt;/div&gt;&lt;div&gt;articolo&lt;/div&gt;&lt;div&gt;fornitore&lt;br&gt;&lt;/div&gt;" style="text;html=1;strokeColor=none;fillColor=none;align=center;verticalAlign=middle;whiteSpace=wrap;rounded=0;fontFamily=Roboto;fontSource=https%3A%2F%2Ffonts.googleapis.com%2Fcss%3Ffamily%3DRoboto;" parent="CbDLqZds7CBD2YCKXWCp-1" vertex="1">
          <mxGeometry x="480.13" y="380" width="40" height="50" as="geometry" />
        </mxCell>
        <mxCell id="CbDLqZds7CBD2YCKXWCp-11" value="" style="ellipse;whiteSpace=wrap;html=1;aspect=fixed;fontFamily=Roboto;fontSource=https%3A%2F%2Ffonts.googleapis.com%2Fcss%3Ffamily%3DRoboto;" parent="CbDLqZds7CBD2YCKXWCp-1" vertex="1">
          <mxGeometry x="579.38" y="428" width="20" height="20" as="geometry" />
        </mxCell>
        <mxCell id="CbDLqZds7CBD2YCKXWCp-12" value="" style="endArrow=none;html=1;entryX=0.5;entryY=1;entryDx=0;entryDy=0;fontFamily=Roboto;fontSource=https%3A%2F%2Ffonts.googleapis.com%2Fcss%3Ffamily%3DRoboto;" parent="CbDLqZds7CBD2YCKXWCp-1" target="CbDLqZds7CBD2YCKXWCp-11" edge="1">
          <mxGeometry x="569.38" y="402" width="50" height="50" as="geometry">
            <mxPoint x="589.38" y="472" as="sourcePoint" />
            <mxPoint x="1009.38" y="402" as="targetPoint" />
          </mxGeometry>
        </mxCell>
        <mxCell id="CbDLqZds7CBD2YCKXWCp-13" value="" style="endArrow=none;html=1;fontFamily=Roboto;fontSource=https%3A%2F%2Ffonts.googleapis.com%2Fcss%3Ffamily%3DRoboto;" parent="CbDLqZds7CBD2YCKXWCp-1" edge="1">
          <mxGeometry x="299.5" y="541" width="50" height="50" as="geometry">
            <mxPoint x="389.3299999999999" y="611" as="sourcePoint" />
            <mxPoint x="389.3299999999999" y="581" as="targetPoint" />
          </mxGeometry>
        </mxCell>
        <mxCell id="CbDLqZds7CBD2YCKXWCp-14" value="" style="ellipse;whiteSpace=wrap;html=1;aspect=fixed;fontFamily=Roboto;fontSource=https%3A%2F%2Ffonts.googleapis.com%2Fcss%3Ffamily%3DRoboto;" parent="CbDLqZds7CBD2YCKXWCp-1" vertex="1">
          <mxGeometry x="379.5" y="561" width="20" height="20" as="geometry" />
        </mxCell>
        <mxCell id="CbDLqZds7CBD2YCKXWCp-15" value="Fax" style="text;html=1;strokeColor=none;fillColor=none;align=center;verticalAlign=middle;whiteSpace=wrap;rounded=0;fontFamily=Roboto;fontSource=https%3A%2F%2Ffonts.googleapis.com%2Fcss%3Ffamily%3DRoboto;" parent="CbDLqZds7CBD2YCKXWCp-1" vertex="1">
          <mxGeometry x="369.5" y="540" width="40" height="21" as="geometry" />
        </mxCell>
        <mxCell id="CbDLqZds7CBD2YCKXWCp-16" value="" style="endArrow=none;html=1;fontFamily=Roboto;fontSource=https%3A%2F%2Ffonts.googleapis.com%2Fcss%3Ffamily%3DRoboto;" parent="CbDLqZds7CBD2YCKXWCp-1" edge="1">
          <mxGeometry x="249.5" y="551" width="50" height="50" as="geometry">
            <mxPoint x="339.3299999999999" y="621" as="sourcePoint" />
            <mxPoint x="339.3299999999999" y="591" as="targetPoint" />
          </mxGeometry>
        </mxCell>
        <mxCell id="CbDLqZds7CBD2YCKXWCp-17" value="" style="ellipse;whiteSpace=wrap;html=1;aspect=fixed;fontFamily=Roboto;fontSource=https%3A%2F%2Ffonts.googleapis.com%2Fcss%3Ffamily%3DRoboto;" parent="CbDLqZds7CBD2YCKXWCp-1" vertex="1">
          <mxGeometry x="329.5" y="571" width="20" height="20" as="geometry" />
        </mxCell>
        <mxCell id="CbDLqZds7CBD2YCKXWCp-18" value="Indirizzo" style="text;html=1;strokeColor=none;fillColor=none;align=center;verticalAlign=middle;whiteSpace=wrap;rounded=0;fontFamily=Roboto;fontSource=https%3A%2F%2Ffonts.googleapis.com%2Fcss%3Ffamily%3DRoboto;" parent="CbDLqZds7CBD2YCKXWCp-1" vertex="1">
          <mxGeometry x="319.5" y="551" width="40" height="20" as="geometry" />
        </mxCell>
        <mxCell id="CbDLqZds7CBD2YCKXWCp-19" value="" style="group;fontFamily=Roboto;fontSource=https%3A%2F%2Ffonts.googleapis.com%2Fcss%3Ffamily%3DRoboto;" parent="CbDLqZds7CBD2YCKXWCp-1" connectable="0" vertex="1">
          <mxGeometry x="269.5" y="541" width="40" height="70" as="geometry" />
        </mxCell>
        <mxCell id="CbDLqZds7CBD2YCKXWCp-20" value="Partita IVA" style="text;html=1;strokeColor=none;fillColor=none;align=center;verticalAlign=middle;whiteSpace=wrap;rounded=0;fontFamily=Roboto;fontSource=https%3A%2F%2Ffonts.googleapis.com%2Fcss%3Ffamily%3DRoboto;" parent="CbDLqZds7CBD2YCKXWCp-19" vertex="1">
          <mxGeometry y="-5" width="40" height="30" as="geometry" />
        </mxCell>
        <mxCell id="CbDLqZds7CBD2YCKXWCp-21" value="" style="ellipse;whiteSpace=wrap;html=1;aspect=fixed;fontFamily=Roboto;fontSource=https%3A%2F%2Ffonts.googleapis.com%2Fcss%3Ffamily%3DRoboto;fillColor=#000000;" parent="CbDLqZds7CBD2YCKXWCp-19" vertex="1">
          <mxGeometry x="10" y="25" width="20" height="20" as="geometry" />
        </mxCell>
        <mxCell id="CbDLqZds7CBD2YCKXWCp-22" value="" style="endArrow=none;html=1;entryX=0.5;entryY=1;entryDx=0;entryDy=0;fontFamily=Roboto;fontSource=https%3A%2F%2Ffonts.googleapis.com%2Fcss%3Ffamily%3DRoboto;" parent="CbDLqZds7CBD2YCKXWCp-1" target="CbDLqZds7CBD2YCKXWCp-122" edge="1">
          <mxGeometry x="519.38" y="502" width="50" height="50" as="geometry">
            <mxPoint x="589.38" y="492" as="sourcePoint" />
            <mxPoint x="129.38" y="552" as="targetPoint" />
          </mxGeometry>
        </mxCell>
        <mxCell id="CbDLqZds7CBD2YCKXWCp-23" value="" style="ellipse;whiteSpace=wrap;html=1;aspect=fixed;fontFamily=Roboto;fontSource=https%3A%2F%2Ffonts.googleapis.com%2Fcss%3Ffamily%3DRoboto;rotation=-180;" parent="CbDLqZds7CBD2YCKXWCp-1" vertex="1">
          <mxGeometry x="490.13" y="512" width="20" height="20" as="geometry" />
        </mxCell>
        <mxCell id="CbDLqZds7CBD2YCKXWCp-24" value="" style="endArrow=none;html=1;exitX=0.475;exitY=0;exitDx=0;exitDy=0;entryX=0.5;entryY=1;entryDx=0;entryDy=0;exitPerimeter=0;fontFamily=Roboto;fontSource=https%3A%2F%2Ffonts.googleapis.com%2Fcss%3Ffamily%3DRoboto;" parent="CbDLqZds7CBD2YCKXWCp-1" target="CbDLqZds7CBD2YCKXWCp-21" edge="1">
          <mxGeometry x="259.5" y="541" width="50" height="50" as="geometry">
            <mxPoint x="289.5000000000002" y="611" as="sourcePoint" />
            <mxPoint x="312.5" y="551" as="targetPoint" />
          </mxGeometry>
        </mxCell>
        <mxCell id="CbDLqZds7CBD2YCKXWCp-25" value="&lt;div&gt;Prezzo&lt;/div&gt;&lt;div&gt;unitario&lt;br&gt;&lt;/div&gt;" style="text;html=1;strokeColor=none;fillColor=none;align=center;verticalAlign=middle;whiteSpace=wrap;rounded=0;fontFamily=Roboto;fontSource=https%3A%2F%2Ffonts.googleapis.com%2Fcss%3Ffamily%3DRoboto;rotation=0;" parent="CbDLqZds7CBD2YCKXWCp-1" vertex="1">
          <mxGeometry x="480.13" y="537" width="40" height="20" as="geometry" />
        </mxCell>
        <mxCell id="CbDLqZds7CBD2YCKXWCp-26" value="" style="endArrow=none;html=1;entryX=0.5;entryY=1;entryDx=0;entryDy=0;fontFamily=Roboto;fontSource=https%3A%2F%2Ffonts.googleapis.com%2Fcss%3Ffamily%3DRoboto;startArrow=none;" parent="CbDLqZds7CBD2YCKXWCp-1" target="CbDLqZds7CBD2YCKXWCp-23" edge="1">
          <mxGeometry x="430.13" y="502" width="50" height="50" as="geometry">
            <mxPoint x="500.13" y="512" as="sourcePoint" />
            <mxPoint x="40.13" y="552" as="targetPoint" />
          </mxGeometry>
        </mxCell>
        <mxCell id="CbDLqZds7CBD2YCKXWCp-27" value="&lt;div&gt;Data emissione&lt;/div&gt;" style="text;html=1;strokeColor=none;fillColor=none;align=center;verticalAlign=middle;whiteSpace=wrap;rounded=0;fontFamily=Roboto;fontSource=https%3A%2F%2Ffonts.googleapis.com%2Fcss%3Ffamily%3DRoboto;" parent="CbDLqZds7CBD2YCKXWCp-1" vertex="1">
          <mxGeometry x="210" y="404" width="40" height="20" as="geometry" />
        </mxCell>
        <mxCell id="CbDLqZds7CBD2YCKXWCp-28" value="" style="endArrow=none;html=1;fontFamily=Roboto;fontSource=https%3A%2F%2Ffonts.googleapis.com%2Fcss%3Ffamily%3DRoboto;exitX=0.25;exitY=0;exitDx=0;exitDy=0;" parent="CbDLqZds7CBD2YCKXWCp-1" target="CbDLqZds7CBD2YCKXWCp-31" edge="1">
          <mxGeometry x="65" y="410" width="50" height="50" as="geometry">
            <mxPoint x="130" y="470" as="sourcePoint" />
            <mxPoint x="105" y="460" as="targetPoint" />
          </mxGeometry>
        </mxCell>
        <mxCell id="CbDLqZds7CBD2YCKXWCp-29" value="" style="endArrow=none;html=1;exitX=0.75;exitY=0;exitDx=0;exitDy=0;entryX=1;entryY=0.5;entryDx=0;entryDy=0;fontFamily=Roboto;fontSource=https%3A%2F%2Ffonts.googleapis.com%2Fcss%3Ffamily%3DRoboto;" parent="CbDLqZds7CBD2YCKXWCp-1" target="CbDLqZds7CBD2YCKXWCp-30" edge="1">
          <mxGeometry x="105" y="409" width="50" height="50" as="geometry">
            <mxPoint x="230" y="469" as="sourcePoint" />
            <mxPoint x="255" y="454" as="targetPoint" />
          </mxGeometry>
        </mxCell>
        <mxCell id="CbDLqZds7CBD2YCKXWCp-30" value="&lt;span style=&quot;color: rgba(0, 0, 0, 0); font-size: 0px;&quot;&gt;%3CmxGraphModel%3E%3Croot%3E%3CmxCell%20id%3D%220%22%2F%3E%3CmxCell%20id%3D%221%22%20parent%3D%220%22%2F%3E%3CmxCell%20id%3D%222%22%20value%3D%22%22%20style%3D%22group%3BfontFamily%3DRoboto%3BfontSource%3Dhttps%253A%252F%252Ffonts.googleapis.com%252Fcss%253Ffamily%253DRoboto%3B%22%20connectable%3D%220%22%20vertex%3D%221%22%20parent%3D%221%22%3E%3CmxGeometry%20x%3D%2250%22%20y%3D%22450%22%20width%3D%22130%22%20height%3D%22140%22%20as%3D%22geometry%22%2F%3E%3C%2FmxCell%3E%3CmxCell%20id%3D%223%22%20value%3D%22Ordine%22%20style%3D%22rounded%3D0%3BwhiteSpace%3Dwrap%3Bhtml%3D1%3BfontFamily%3DRoboto%3BfontSource%3Dhttps%253A%252F%252Ffonts.googleapis.com%252Fcss%253Ffamily%253DRoboto%3BfillColor%3D%23f8cecc%3BstrokeColor%3D%23b85450%3BgradientColor%3D%23ea6b66%3B%22%20vertex%3D%221%22%20parent%3D%222%22%3E%3CmxGeometry%20x%3D%2240%22%20y%3D%2280%22%20width%3D%22120%22%20height%3D%2260%22%20as%3D%22geometry%22%2F%3E%3C%2FmxCell%3E%3CmxCell%20id%3D%224%22%20value%3D%22%22%20style%3D%22group%3BfontFamily%3DRoboto%3BfontSource%3Dhttps%253A%252F%252Ffonts.googleapis.com%252Fcss%253Ffamily%253DRoboto%3B%22%20connectable%3D%220%22%20vertex%3D%221%22%20parent%3D%222%22%3E%3CmxGeometry%20x%3D%2290%22%20width%3D%2240%22%20height%3D%2280%22%20as%3D%22geometry%22%2F%3E%3C%2FmxCell%3E%3CmxCell%20id%3D%225%22%20value%3D%22%22%20style%3D%22ellipse%3BwhiteSpace%3Dwrap%3Bhtml%3D1%3Baspect%3Dfixed%3BfontFamily%3DRoboto%3BfontSource%3Dhttps%253A%252F%252Ffonts.googleapis.com%252Fcss%253Ffamily%253DRoboto%3B%22%20vertex%3D%221%22%20parent%3D%224%22%3E%3CmxGeometry%20x%3D%2230%22%20y%3D%2230%22%20width%3D%2220%22%20height%3D%2220%22%20as%3D%22geometry%22%2F%3E%3C%2FmxCell%3E%3CmxCell%20id%3D%226%22%20value%3D%22%26lt%3Bdiv%26gt%3BData%20emissione%26lt%3B%2Fdiv%26gt%3B%22%20style%3D%22text%3Bhtml%3D1%3BstrokeColor%3Dnone%3BfillColor%3Dnone%3Balign%3Dcenter%3BverticalAlign%3Dmiddle%3BwhiteSpace%3Dwrap%3Brounded%3D0%3BfontFamily%3DRoboto%3BfontSource%3Dhttps%253A%252F%252Ffonts.googleapis.com%252Fcss%253Ffamily%253DRoboto%3B%22%20vertex%3D%221%22%20parent%3D%224%22%3E%3CmxGeometry%20width%3D%2240%22%20height%3D%2220%22%20as%3D%22geometry%22%2F%3E%3C%2FmxCell%3E%3CmxCell%20id%3D%227%22%20value%3D%22%22%20style%3D%22group%3BfontFamily%3DRoboto%3BfontSource%3Dhttps%253A%252F%252Ffonts.googleapis.com%252Fcss%253Ffamily%253DRoboto%3B%22%20connectable%3D%220%22%20vertex%3D%221%22%20parent%3D%222%22%3E%3CmxGeometry%20x%3D%2210%22%20y%3D%2210%22%20width%3D%2260%22%20height%3D%2270%22%20as%3D%22geometry%22%2F%3E%3C%2FmxCell%3E%3CmxCell%20id%3D%228%22%20value%3D%22%22%20style%3D%22ellipse%3BfontFamily%3DRoboto%3BfontSource%3Dhttps%253A%252F%252Ffonts.googleapis.com%252Fcss%253Ffamily%253DRoboto%3BfillColor%3D%23000000%3B%22%20vertex%3D%221%22%20parent%3D%227%22%3E%3CmxGeometry%20x%3D%2210%22%20y%3D%2220%22%20width%3D%2220%22%20height%3D%2220%22%20as%3D%22geometry%22%2F%3E%3C%2FmxCell%3E%3CmxCell%20id%3D%229%22%20value%3D%22Codice%20ordine%22%20style%3D%22text%3Bhtml%3D1%3BstrokeColor%3Dnone%3BfillColor%3Dnone%3Balign%3Dcenter%3BverticalAlign%3Dmiddle%3BwhiteSpace%3Dwrap%3Brounded%3D0%3BfontFamily%3DRoboto%3BfontSource%3Dhttps%253A%252F%252Ffonts.googleapis.com%252Fcss%253Ffamily%253DRoboto%3B%22%20vertex%3D%221%22%20parent%3D%227%22%3E%3CmxGeometry%20x%3D%22-20%22%20y%3D%22-10%22%20width%3D%2280%22%20height%3D%2220%22%20as%3D%22geometry%22%2F%3E%3C%2FmxCell%3E%3CmxCell%20id%3D%2210%22%20value%3D%22%22%20style%3D%22endArrow%3Dnone%3Bhtml%3D1%3BfontFamily%3DRoboto%3BfontSource%3Dhttps%253A%252F%252Ffonts.googleapis.com%252Fcss%253Ffamily%253DRoboto%3BexitX%3D0.25%3BexitY%3D0%3BexitDx%3D0%3BexitDy%3D0%3B%22%20edge%3D%221%22%20parent%3D%222%22%20source%3D%223%22%20target%3D%228%22%3E%3CmxGeometry%20width%3D%2250%22%20height%3D%2250%22%20relative%3D%221%22%20as%3D%22geometry%22%3E%3CmxPoint%20x%3D%2240%22%20y%3D%2280%22%20as%3D%22sourcePoint%22%2F%3E%3CmxPoint%20x%3D%2240%22%20y%3D%2250%22%20as%3D%22targetPoint%22%2F%3E%3C%2FmxGeometry%3E%3C%2FmxCell%3E%3CmxCell%20id%3D%2211%22%20value%3D%22%22%20style%3D%22endArrow%3Dnone%3Bhtml%3D1%3BfontFamily%3DRoboto%3BfontSource%3Dhttps%253A%252F%252Ffonts.googleapis.com%252Fcss%253Ffamily%253DRoboto%3BexitX%3D0.75%3BexitY%3D0%3BexitDx%3D0%3BexitDy%3D0%3BentryX%3D0.5%3BentryY%3D1%3BentryDx%3D0%3BentryDy%3D0%3B%22%20edge%3D%221%22%20parent%3D%222%22%20source%3D%223%22%20target%3D%225%22%3E%3CmxGeometry%20x%3D%22100%22%20y%3D%2210%22%20width%3D%2250%22%20height%3D%2250%22%20as%3D%22geometry%22%3E%3CmxPoint%20x%3D%22120%22%20y%3D%2280%22%20as%3D%22sourcePoint%22%2F%3E%3CmxPoint%20x%3D%22123%22%20y%3D%2246%22%20as%3D%22targetPoint%22%2F%3E%3CArray%20as%3D%22points%22%2F%3E%3C%2FmxGeometry%3E%3C%2FmxCell%3E%3C%2Froot%3E%3C%2FmxGraphModel%3E&lt;/span&gt;" style="ellipse;whiteSpace=wrap;html=1;aspect=fixed;fontFamily=Roboto;fontSource=https%3A%2F%2Ffonts.googleapis.com%2Fcss%3Ffamily%3DRoboto;rotation=90;" parent="CbDLqZds7CBD2YCKXWCp-1" vertex="1">
          <mxGeometry x="220" y="429" width="20" height="20" as="geometry" />
        </mxCell>
        <mxCell id="CbDLqZds7CBD2YCKXWCp-31" value="" style="ellipse;fontFamily=Roboto;fontSource=https%3A%2F%2Ffonts.googleapis.com%2Fcss%3Ffamily%3DRoboto;fillColor=#000000;" parent="CbDLqZds7CBD2YCKXWCp-1" vertex="1">
          <mxGeometry x="120" y="430" width="20" height="20" as="geometry" />
        </mxCell>
        <mxCell id="CbDLqZds7CBD2YCKXWCp-32" value="" style="ellipse;whiteSpace=wrap;html=1;aspect=fixed;fontFamily=Roboto;fontSource=https%3A%2F%2Ffonts.googleapis.com%2Fcss%3Ffamily%3DRoboto;rotation=-180;" parent="CbDLqZds7CBD2YCKXWCp-1" vertex="1">
          <mxGeometry x="150" y="290" width="20" height="20" as="geometry" />
        </mxCell>
        <mxCell id="CbDLqZds7CBD2YCKXWCp-33" value="&lt;div&gt;Data emissione&lt;/div&gt;" style="text;html=1;strokeColor=none;fillColor=none;align=center;verticalAlign=middle;whiteSpace=wrap;rounded=0;fontFamily=Roboto;fontSource=https%3A%2F%2Ffonts.googleapis.com%2Fcss%3Ffamily%3DRoboto;rotation=0;" parent="CbDLqZds7CBD2YCKXWCp-1" vertex="1">
          <mxGeometry x="140" y="315" width="40" height="20" as="geometry" />
        </mxCell>
        <mxCell id="CbDLqZds7CBD2YCKXWCp-34" value="" style="endArrow=none;html=1;entryX=0.5;entryY=1;entryDx=0;entryDy=0;fontFamily=Roboto;fontSource=https%3A%2F%2Ffonts.googleapis.com%2Fcss%3Ffamily%3DRoboto;" parent="CbDLqZds7CBD2YCKXWCp-1" target="CbDLqZds7CBD2YCKXWCp-32" edge="1">
          <mxGeometry x="90" y="280" width="50" height="50" as="geometry">
            <mxPoint x="160" y="270" as="sourcePoint" />
            <mxPoint x="-300" y="330" as="targetPoint" />
          </mxGeometry>
        </mxCell>
        <mxCell id="CbDLqZds7CBD2YCKXWCp-35" value="" style="ellipse;whiteSpace=wrap;html=1;aspect=fixed;fontFamily=Roboto;fontSource=https%3A%2F%2Ffonts.googleapis.com%2Fcss%3Ffamily%3DRoboto;rotation=-90;" parent="CbDLqZds7CBD2YCKXWCp-1" vertex="1">
          <mxGeometry x="450" y="335" width="20" height="20" as="geometry" />
        </mxCell>
        <mxCell id="CbDLqZds7CBD2YCKXWCp-36" value="" style="endArrow=none;html=1;fontFamily=Roboto;fontSource=https%3A%2F%2Ffonts.googleapis.com%2Fcss%3Ffamily%3DRoboto;entryX=0.5;entryY=0;entryDx=0;entryDy=0;endSize=6;startSize=6;arcSize=20;" parent="CbDLqZds7CBD2YCKXWCp-1" target="CbDLqZds7CBD2YCKXWCp-35" edge="1">
          <mxGeometry width="50" height="50" relative="1" as="geometry">
            <mxPoint x="430" y="345" as="sourcePoint" />
            <mxPoint x="540" y="365" as="targetPoint" />
          </mxGeometry>
        </mxCell>
        <mxCell id="CbDLqZds7CBD2YCKXWCp-39" value="" style="ellipse;whiteSpace=wrap;html=1;aspect=fixed;fontFamily=Roboto;fontSource=https%3A%2F%2Ffonts.googleapis.com%2Fcss%3Ffamily%3DRoboto;" parent="CbDLqZds7CBD2YCKXWCp-1" vertex="1">
          <mxGeometry x="510" y="30" width="20" height="20" as="geometry" />
        </mxCell>
        <mxCell id="CbDLqZds7CBD2YCKXWCp-40" value="" style="endArrow=none;html=1;entryX=0.5;entryY=1;entryDx=0;entryDy=0;fontFamily=Roboto;fontSource=https%3A%2F%2Ffonts.googleapis.com%2Fcss%3Ffamily%3DRoboto;exitX=0.833;exitY=0;exitDx=0;exitDy=0;exitPerimeter=0;" parent="CbDLqZds7CBD2YCKXWCp-1" source="CbDLqZds7CBD2YCKXWCp-64" target="CbDLqZds7CBD2YCKXWCp-39" edge="1">
          <mxGeometry x="580" y="30" width="50" height="50" as="geometry">
            <mxPoint x="588" y="100" as="sourcePoint" />
            <mxPoint x="1020" y="30" as="targetPoint" />
          </mxGeometry>
        </mxCell>
        <mxCell id="CbDLqZds7CBD2YCKXWCp-41" value="&lt;font style=&quot;font-size: 12px;&quot;&gt;Cognome&lt;/font&gt;" style="text;html=1;strokeColor=none;fillColor=none;align=center;verticalAlign=middle;whiteSpace=wrap;rounded=0;fontFamily=Roboto;fontSource=https%3A%2F%2Ffonts.googleapis.com%2Fcss%3Ffamily%3DRoboto;fontSize=12;" parent="CbDLqZds7CBD2YCKXWCp-1" vertex="1">
          <mxGeometry x="500" y="10" width="40" height="20" as="geometry" />
        </mxCell>
        <mxCell id="CbDLqZds7CBD2YCKXWCp-42" value="" style="endArrow=none;html=1;exitX=0.5;exitY=0;exitDx=0;exitDy=0;entryX=0.5;entryY=1;entryDx=0;entryDy=0;fontFamily=Roboto;fontSource=https%3A%2F%2Ffonts.googleapis.com%2Fcss%3Ffamily%3DRoboto;" parent="CbDLqZds7CBD2YCKXWCp-1" source="CbDLqZds7CBD2YCKXWCp-64" target="CbDLqZds7CBD2YCKXWCp-43" edge="1">
          <mxGeometry x="528" y="20" width="50" height="50" as="geometry">
            <mxPoint x="548" y="90" as="sourcePoint" />
            <mxPoint x="548" y="60" as="targetPoint" />
          </mxGeometry>
        </mxCell>
        <mxCell id="CbDLqZds7CBD2YCKXWCp-43" value="" style="ellipse;fontFamily=Roboto;fontSource=https%3A%2F%2Ffonts.googleapis.com%2Fcss%3Ffamily%3DRoboto;fillColor=#000000;" parent="CbDLqZds7CBD2YCKXWCp-1" vertex="1">
          <mxGeometry x="470" y="50" width="20" height="20" as="geometry" />
        </mxCell>
        <mxCell id="CbDLqZds7CBD2YCKXWCp-44" value="C.F." style="text;html=1;strokeColor=none;fillColor=none;align=center;verticalAlign=middle;whiteSpace=wrap;rounded=0;fontFamily=Roboto;fontSource=https%3A%2F%2Ffonts.googleapis.com%2Fcss%3Ffamily%3DRoboto;" parent="CbDLqZds7CBD2YCKXWCp-1" vertex="1">
          <mxGeometry x="460" y="30" width="40" height="20" as="geometry" />
        </mxCell>
        <mxCell id="CbDLqZds7CBD2YCKXWCp-45" value="" style="ellipse;whiteSpace=wrap;html=1;aspect=fixed;fontFamily=Roboto;fontSource=https%3A%2F%2Ffonts.googleapis.com%2Fcss%3Ffamily%3DRoboto;" parent="CbDLqZds7CBD2YCKXWCp-1" vertex="1">
          <mxGeometry x="430" y="30" width="20" height="20" as="geometry" />
        </mxCell>
        <mxCell id="CbDLqZds7CBD2YCKXWCp-46" value="" style="endArrow=none;html=1;entryX=0.5;entryY=1;entryDx=0;entryDy=0;fontFamily=Roboto;fontSource=https%3A%2F%2Ffonts.googleapis.com%2Fcss%3Ffamily%3DRoboto;exitX=0.167;exitY=0;exitDx=0;exitDy=0;exitPerimeter=0;" parent="CbDLqZds7CBD2YCKXWCp-1" source="CbDLqZds7CBD2YCKXWCp-64" target="CbDLqZds7CBD2YCKXWCp-45" edge="1">
          <mxGeometry x="418" y="25" width="50" height="50" as="geometry">
            <mxPoint x="508" y="90" as="sourcePoint" />
            <mxPoint x="858" y="25" as="targetPoint" />
          </mxGeometry>
        </mxCell>
        <mxCell id="CbDLqZds7CBD2YCKXWCp-47" value="Nome" style="text;html=1;strokeColor=none;fillColor=none;align=center;verticalAlign=middle;whiteSpace=wrap;rounded=0;fontFamily=Roboto;fontSource=https%3A%2F%2Ffonts.googleapis.com%2Fcss%3Ffamily%3DRoboto;fontSize=12;" parent="CbDLqZds7CBD2YCKXWCp-1" vertex="1">
          <mxGeometry x="420" y="10" width="40" height="20" as="geometry" />
        </mxCell>
        <mxCell id="CbDLqZds7CBD2YCKXWCp-48" value="" style="group;fontFamily=Roboto;fontSource=https%3A%2F%2Ffonts.googleapis.com%2Fcss%3Ffamily%3DRoboto;" parent="CbDLqZds7CBD2YCKXWCp-1" connectable="0" vertex="1">
          <mxGeometry x="140" y="20" width="40" height="70" as="geometry" />
        </mxCell>
        <mxCell id="CbDLqZds7CBD2YCKXWCp-49" value="" style="endArrow=none;html=1;fontFamily=Roboto;fontSource=https%3A%2F%2Ffonts.googleapis.com%2Fcss%3Ffamily%3DRoboto;" parent="CbDLqZds7CBD2YCKXWCp-48" edge="1">
          <mxGeometry width="50" height="50" relative="1" as="geometry">
            <mxPoint x="20" y="70" as="sourcePoint" />
            <mxPoint x="20" y="40" as="targetPoint" />
          </mxGeometry>
        </mxCell>
        <mxCell id="CbDLqZds7CBD2YCKXWCp-50" value="" style="ellipse;fontFamily=Roboto;fontSource=https%3A%2F%2Ffonts.googleapis.com%2Fcss%3Ffamily%3DRoboto;fillColor=#000000;" parent="CbDLqZds7CBD2YCKXWCp-48" vertex="1">
          <mxGeometry x="10" y="20" width="20" height="20" as="geometry" />
        </mxCell>
        <mxCell id="CbDLqZds7CBD2YCKXWCp-51" value="Codice" style="text;html=1;strokeColor=none;fillColor=none;align=center;verticalAlign=middle;whiteSpace=wrap;rounded=0;fontFamily=Roboto;fontSource=https%3A%2F%2Ffonts.googleapis.com%2Fcss%3Ffamily%3DRoboto;" parent="CbDLqZds7CBD2YCKXWCp-48" vertex="1">
          <mxGeometry width="40" height="20" as="geometry" />
        </mxCell>
        <mxCell id="CbDLqZds7CBD2YCKXWCp-52" value="" style="group;fontFamily=Roboto;fontSource=https%3A%2F%2Ffonts.googleapis.com%2Fcss%3Ffamily%3DRoboto;" parent="CbDLqZds7CBD2YCKXWCp-1" connectable="0" vertex="1">
          <mxGeometry x="220" y="20" width="40" height="70" as="geometry" />
        </mxCell>
        <mxCell id="CbDLqZds7CBD2YCKXWCp-53" value="" style="ellipse;whiteSpace=wrap;html=1;aspect=fixed;fontFamily=Roboto;fontSource=https%3A%2F%2Ffonts.googleapis.com%2Fcss%3Ffamily%3DRoboto;" parent="CbDLqZds7CBD2YCKXWCp-52" vertex="1">
          <mxGeometry x="10" y="20" width="20" height="20" as="geometry" />
        </mxCell>
        <mxCell id="CbDLqZds7CBD2YCKXWCp-54" value="" style="endArrow=none;html=1;entryX=0.5;entryY=1;entryDx=0;entryDy=0;fontFamily=Roboto;fontSource=https%3A%2F%2Ffonts.googleapis.com%2Fcss%3Ffamily%3DRoboto;" parent="CbDLqZds7CBD2YCKXWCp-52" target="CbDLqZds7CBD2YCKXWCp-53" edge="1">
          <mxGeometry width="50" height="50" relative="1" as="geometry">
            <mxPoint x="20" y="70" as="sourcePoint" />
            <mxPoint x="440" as="targetPoint" />
          </mxGeometry>
        </mxCell>
        <mxCell id="CbDLqZds7CBD2YCKXWCp-55" value="Descrizione" style="text;html=1;strokeColor=none;fillColor=none;align=center;verticalAlign=middle;whiteSpace=wrap;rounded=0;fontFamily=Roboto;fontSource=https%3A%2F%2Ffonts.googleapis.com%2Fcss%3Ffamily%3DRoboto;" parent="CbDLqZds7CBD2YCKXWCp-52" vertex="1">
          <mxGeometry width="40" height="20" as="geometry" />
        </mxCell>
        <mxCell id="CbDLqZds7CBD2YCKXWCp-56" value="Gestisce" style="shape=rhombus;perimeter=rhombusPerimeter;whiteSpace=wrap;html=1;align=center;fontFamily=Roboto;fontSource=https%3A%2F%2Ffonts.googleapis.com%2Fcss%3Ffamily%3DRoboto;gradientColor=#ffd966;fillColor=#fff2cc;strokeColor=#d6b656;" parent="CbDLqZds7CBD2YCKXWCp-1" vertex="1">
          <mxGeometry x="300" y="80" width="80" height="40" as="geometry" />
        </mxCell>
        <mxCell id="CbDLqZds7CBD2YCKXWCp-57" value="" style="endArrow=none;html=1;exitX=1;exitY=0.5;exitDx=0;exitDy=0;entryX=0;entryY=0.5;entryDx=0;entryDy=0;fontFamily=Roboto;fontSource=https%3A%2F%2Ffonts.googleapis.com%2Fcss%3Ffamily%3DRoboto;" parent="CbDLqZds7CBD2YCKXWCp-1" source="CbDLqZds7CBD2YCKXWCp-101" target="CbDLqZds7CBD2YCKXWCp-56" edge="1">
          <mxGeometry width="50" height="50" relative="1" as="geometry">
            <mxPoint x="262" y="180.76" as="sourcePoint" />
            <mxPoint x="312" y="170.76" as="targetPoint" />
          </mxGeometry>
        </mxCell>
        <mxCell id="CbDLqZds7CBD2YCKXWCp-58" value="(1,1)" style="text;html=1;strokeColor=none;fillColor=none;align=center;verticalAlign=middle;whiteSpace=wrap;rounded=0;fontFamily=Roboto;fontSource=https%3A%2F%2Ffonts.googleapis.com%2Fcss%3Ffamily%3DRoboto;" parent="CbDLqZds7CBD2YCKXWCp-1" vertex="1">
          <mxGeometry x="260" y="80" width="40" height="20" as="geometry" />
        </mxCell>
        <mxCell id="CbDLqZds7CBD2YCKXWCp-59" value="(1,N)" style="text;html=1;strokeColor=none;fillColor=none;align=center;verticalAlign=middle;whiteSpace=wrap;rounded=0;fontFamily=Roboto;fontSource=https%3A%2F%2Ffonts.googleapis.com%2Fcss%3Ffamily%3DRoboto;" parent="CbDLqZds7CBD2YCKXWCp-1" vertex="1">
          <mxGeometry x="380" y="80" width="40" height="20" as="geometry" />
        </mxCell>
        <mxCell id="CbDLqZds7CBD2YCKXWCp-60" value="Formula" style="shape=rhombus;perimeter=rhombusPerimeter;whiteSpace=wrap;html=1;align=center;fontFamily=Roboto;fontSource=https%3A%2F%2Ffonts.googleapis.com%2Fcss%3Ffamily%3DRoboto;gradientColor=#ffd966;fillColor=#fff2cc;strokeColor=#d6b656;" parent="CbDLqZds7CBD2YCKXWCp-1" vertex="1">
          <mxGeometry x="160" y="160" width="80" height="40" as="geometry" />
        </mxCell>
        <mxCell id="CbDLqZds7CBD2YCKXWCp-61" value="" style="line;strokeWidth=1;rotatable=0;dashed=0;labelPosition=right;align=left;verticalAlign=middle;spacingTop=0;spacingLeft=6;points=[];portConstraint=eastwest;fontFamily=Roboto;fontSource=https%3A%2F%2Ffonts.googleapis.com%2Fcss%3Ffamily%3DRoboto;" parent="CbDLqZds7CBD2YCKXWCp-1" vertex="1">
          <mxGeometry x="152" y="213.5" width="140" as="geometry" />
        </mxCell>
        <mxCell id="CbDLqZds7CBD2YCKXWCp-62" value="" style="endArrow=none;html=1;rounded=0;entryX=0.5;entryY=0;entryDx=0;entryDy=0;fontFamily=Roboto;fontSource=https%3A%2F%2Ffonts.googleapis.com%2Fcss%3Ffamily%3DRoboto;exitX=0.5;exitY=1;exitDx=0;exitDy=0;" parent="CbDLqZds7CBD2YCKXWCp-1" source="CbDLqZds7CBD2YCKXWCp-101" target="CbDLqZds7CBD2YCKXWCp-60" edge="1">
          <mxGeometry relative="1" as="geometry">
            <mxPoint x="202" y="176.5" as="sourcePoint" />
            <mxPoint x="252" y="283.5" as="targetPoint" />
          </mxGeometry>
        </mxCell>
        <mxCell id="CbDLqZds7CBD2YCKXWCp-63" style="edgeStyle=orthogonalEdgeStyle;rounded=0;orthogonalLoop=1;jettySize=auto;html=1;exitX=0;exitY=0.5;exitDx=0;exitDy=0;entryX=1;entryY=0.5;entryDx=0;entryDy=0;endArrow=none;endFill=0;fontFamily=Roboto;fontSource=https%3A%2F%2Ffonts.googleapis.com%2Fcss%3Ffamily%3DRoboto;" parent="CbDLqZds7CBD2YCKXWCp-1" source="CbDLqZds7CBD2YCKXWCp-64" target="CbDLqZds7CBD2YCKXWCp-56" edge="1">
          <mxGeometry relative="1" as="geometry" />
        </mxCell>
        <mxCell id="CbDLqZds7CBD2YCKXWCp-64" value="Responsabile" style="rounded=0;whiteSpace=wrap;html=1;fontFamily=Roboto;fontSource=https%3A%2F%2Ffonts.googleapis.com%2Fcss%3Ffamily%3DRoboto;fillColor=#f8cecc;strokeColor=#b85450;gradientColor=#ea6b66;" parent="CbDLqZds7CBD2YCKXWCp-1" vertex="1">
          <mxGeometry x="420" y="80" width="120" height="40" as="geometry" />
        </mxCell>
        <mxCell id="CbDLqZds7CBD2YCKXWCp-65" style="rounded=0;orthogonalLoop=1;jettySize=auto;html=1;exitX=0;exitY=0;exitDx=0;exitDy=0;entryX=1;entryY=1;entryDx=0;entryDy=0;endArrow=none;endFill=0;fontFamily=Roboto;fontSource=https%3A%2F%2Ffonts.googleapis.com%2Fcss%3Ffamily%3DRoboto;" parent="CbDLqZds7CBD2YCKXWCp-1" source="CbDLqZds7CBD2YCKXWCp-67" target="CbDLqZds7CBD2YCKXWCp-96" edge="1">
          <mxGeometry relative="1" as="geometry" />
        </mxCell>
        <mxCell id="CbDLqZds7CBD2YCKXWCp-66" style="edgeStyle=none;rounded=0;orthogonalLoop=1;jettySize=auto;html=1;exitX=1;exitY=0;exitDx=0;exitDy=0;entryX=0;entryY=1;entryDx=0;entryDy=0;endArrow=none;endFill=0;fontFamily=Roboto;fontSource=https%3A%2F%2Ffonts.googleapis.com%2Fcss%3Ffamily%3DRoboto;" parent="CbDLqZds7CBD2YCKXWCp-1" source="CbDLqZds7CBD2YCKXWCp-67" target="CbDLqZds7CBD2YCKXWCp-97" edge="1">
          <mxGeometry relative="1" as="geometry" />
        </mxCell>
        <mxCell id="CbDLqZds7CBD2YCKXWCp-67" value="" style="ellipse;whiteSpace=wrap;html=1;rotation=90;fontFamily=Roboto;fontSource=https%3A%2F%2Ffonts.googleapis.com%2Fcss%3Ffamily%3DRoboto;gradientColor=#d5739d;fillColor=#e6d0de;strokeColor=#996185;" parent="CbDLqZds7CBD2YCKXWCp-1" vertex="1">
          <mxGeometry x="590" y="50" width="40" height="60" as="geometry" />
        </mxCell>
        <mxCell id="CbDLqZds7CBD2YCKXWCp-68" value="" style="endArrow=none;html=1;entryX=0.5;entryY=1;entryDx=0;entryDy=0;exitX=1;exitY=0.25;exitDx=0;exitDy=0;fontFamily=Roboto;fontSource=https%3A%2F%2Ffonts.googleapis.com%2Fcss%3Ffamily%3DRoboto;" parent="CbDLqZds7CBD2YCKXWCp-1" target="CbDLqZds7CBD2YCKXWCp-67" edge="1">
          <mxGeometry x="214" y="-293.5" width="50" height="50" as="geometry">
            <mxPoint x="540" y="80" as="sourcePoint" />
            <mxPoint x="269" y="161.5" as="targetPoint" />
          </mxGeometry>
        </mxCell>
        <mxCell id="CbDLqZds7CBD2YCKXWCp-69" value="" style="ellipse;whiteSpace=wrap;html=1;aspect=fixed;rotation=90;fontFamily=Roboto;fontSource=https%3A%2F%2Ffonts.googleapis.com%2Fcss%3Ffamily%3DRoboto;" parent="CbDLqZds7CBD2YCKXWCp-1" vertex="1">
          <mxGeometry x="569" y="110" width="20" height="20" as="geometry" />
        </mxCell>
        <mxCell id="CbDLqZds7CBD2YCKXWCp-70" value="" style="endArrow=none;html=1;entryX=0.5;entryY=1;entryDx=0;entryDy=0;fontFamily=Roboto;fontSource=https%3A%2F%2Ffonts.googleapis.com%2Fcss%3Ffamily%3DRoboto;" parent="CbDLqZds7CBD2YCKXWCp-1" target="CbDLqZds7CBD2YCKXWCp-69" edge="1">
          <mxGeometry x="202" y="-258.5" width="50" height="50" as="geometry">
            <mxPoint x="540" y="120" as="sourcePoint" />
            <mxPoint x="257" y="196.5" as="targetPoint" />
          </mxGeometry>
        </mxCell>
        <mxCell id="CbDLqZds7CBD2YCKXWCp-71" value="&lt;div style=&quot;font-size: 11px&quot;&gt;&lt;font style=&quot;font-size: 11px&quot;&gt;Data di nascita&lt;/font&gt;&lt;/div&gt;" style="text;html=1;strokeColor=none;fillColor=none;align=center;verticalAlign=middle;whiteSpace=wrap;rounded=0;rotation=0;fontFamily=Roboto;fontSource=https%3A%2F%2Ffonts.googleapis.com%2Fcss%3Ffamily%3DRoboto;" parent="CbDLqZds7CBD2YCKXWCp-1" vertex="1">
          <mxGeometry x="582.5" y="110" width="55" height="20" as="geometry" />
        </mxCell>
        <mxCell id="CbDLqZds7CBD2YCKXWCp-72" value="&lt;div style=&quot;font-size: 11px&quot;&gt;&lt;font style=&quot;font-size: 11px&quot;&gt;Luogo di nascita&lt;/font&gt;&lt;/div&gt;" style="text;html=1;strokeColor=none;fillColor=none;align=center;verticalAlign=middle;whiteSpace=wrap;rounded=0;rotation=0;fontFamily=Roboto;fontSource=https%3A%2F%2Ffonts.googleapis.com%2Fcss%3Ffamily%3DRoboto;" parent="CbDLqZds7CBD2YCKXWCp-1" vertex="1">
          <mxGeometry x="582.5" y="70" width="55" height="20" as="geometry" />
        </mxCell>
        <mxCell id="CbDLqZds7CBD2YCKXWCp-73" value="" style="endArrow=none;html=1;rounded=0;entryX=0.5;entryY=0;entryDx=0;entryDy=0;exitX=0.5;exitY=1;exitDx=0;exitDy=0;fontFamily=Roboto;fontSource=https%3A%2F%2Ffonts.googleapis.com%2Fcss%3Ffamily%3DRoboto;" parent="CbDLqZds7CBD2YCKXWCp-1" source="CbDLqZds7CBD2YCKXWCp-60" target="CbDLqZds7CBD2YCKXWCp-77" edge="1">
          <mxGeometry relative="1" as="geometry">
            <mxPoint x="222" y="393.5" as="sourcePoint" />
            <mxPoint x="362" y="353.5" as="targetPoint" />
          </mxGeometry>
        </mxCell>
        <mxCell id="CbDLqZds7CBD2YCKXWCp-74" value="(1,N)" style="text;html=1;strokeColor=none;fillColor=none;align=center;verticalAlign=middle;whiteSpace=wrap;rounded=0;fontFamily=Roboto;fontSource=https%3A%2F%2Ffonts.googleapis.com%2Fcss%3Ffamily%3DRoboto;" parent="CbDLqZds7CBD2YCKXWCp-1" vertex="1">
          <mxGeometry x="200" y="120" width="40" height="20" as="geometry" />
        </mxCell>
        <mxCell id="CbDLqZds7CBD2YCKXWCp-75" value="(1,1)" style="text;html=1;strokeColor=none;fillColor=none;align=center;verticalAlign=middle;whiteSpace=wrap;rounded=0;rotation=0;fontFamily=Roboto;fontSource=https%3A%2F%2Ffonts.googleapis.com%2Fcss%3Ffamily%3DRoboto;" parent="CbDLqZds7CBD2YCKXWCp-1" vertex="1">
          <mxGeometry x="200" y="200" width="40" height="20" as="geometry" />
        </mxCell>
        <mxCell id="CbDLqZds7CBD2YCKXWCp-76" style="edgeStyle=none;rounded=0;sketch=0;orthogonalLoop=1;jettySize=auto;html=1;exitX=1;exitY=0.5;exitDx=0;exitDy=0;entryX=0;entryY=0.5;entryDx=0;entryDy=0;endArrow=none;endFill=0;fontSize=10;fontFamily=Roboto;fontSource=https%3A%2F%2Ffonts.googleapis.com%2Fcss%3Ffamily%3DRoboto;startArrow=none;" parent="CbDLqZds7CBD2YCKXWCp-1" source="BtYsP3XDGlM1IENBePM0-0" edge="1">
          <mxGeometry relative="1" as="geometry">
            <mxPoint x="339.5" y="260" as="targetPoint" />
          </mxGeometry>
        </mxCell>
        <mxCell id="CbDLqZds7CBD2YCKXWCp-77" value="Richiesta d&#39;acquisto" style="rounded=0;whiteSpace=wrap;html=1;fontFamily=Roboto;fontSource=https%3A%2F%2Ffonts.googleapis.com%2Fcss%3Ffamily%3DRoboto;fillColor=#f8cecc;strokeColor=#b85450;gradientColor=#ea6b66;" parent="CbDLqZds7CBD2YCKXWCp-1" vertex="1">
          <mxGeometry x="140" y="240" width="120" height="40" as="geometry" />
        </mxCell>
        <mxCell id="CbDLqZds7CBD2YCKXWCp-78" value="Articolo" style="rounded=0;whiteSpace=wrap;html=1;fontFamily=Roboto;fontSource=https%3A%2F%2Ffonts.googleapis.com%2Fcss%3Ffamily%3DRoboto;fillColor=#f8cecc;strokeColor=#b85450;gradientColor=#ea6b66;" parent="CbDLqZds7CBD2YCKXWCp-1" vertex="1">
          <mxGeometry x="484.75" y="240" width="120" height="40" as="geometry" />
        </mxCell>
        <mxCell id="CbDLqZds7CBD2YCKXWCp-79" value="" style="endArrow=none;html=1;fontFamily=Roboto;fontSource=https%3A%2F%2Ffonts.googleapis.com%2Fcss%3Ffamily%3DRoboto;exitX=0.5;exitY=0;exitDx=0;exitDy=0;entryX=0.5;entryY=1;entryDx=0;entryDy=0;entryPerimeter=0;" parent="CbDLqZds7CBD2YCKXWCp-1" source="CbDLqZds7CBD2YCKXWCp-78" target="CbDLqZds7CBD2YCKXWCp-80" edge="1">
          <mxGeometry x="402.75" y="145" width="50" height="50" as="geometry">
            <mxPoint x="544.75" y="140" as="sourcePoint" />
            <mxPoint x="544.75" y="160" as="targetPoint" />
          </mxGeometry>
        </mxCell>
        <mxCell id="CbDLqZds7CBD2YCKXWCp-80" value="" style="ellipse;fontFamily=Roboto;fontSource=https%3A%2F%2Ffonts.googleapis.com%2Fcss%3Ffamily%3DRoboto;fillColor=#000000;" parent="CbDLqZds7CBD2YCKXWCp-1" vertex="1">
          <mxGeometry x="534.75" y="210" width="20" height="20" as="geometry" />
        </mxCell>
        <mxCell id="CbDLqZds7CBD2YCKXWCp-81" value="&lt;div&gt;Codice&lt;/div&gt;&lt;div&gt;articolo&lt;/div&gt;" style="text;html=1;strokeColor=none;fillColor=none;align=center;verticalAlign=middle;whiteSpace=wrap;rounded=0;rotation=0;fontFamily=Roboto;fontSource=https%3A%2F%2Ffonts.googleapis.com%2Fcss%3Ffamily%3DRoboto;" parent="CbDLqZds7CBD2YCKXWCp-1" vertex="1">
          <mxGeometry x="519.75" y="185" width="50" height="20" as="geometry" />
        </mxCell>
        <mxCell id="CbDLqZds7CBD2YCKXWCp-82" style="edgeStyle=none;rounded=0;sketch=0;orthogonalLoop=1;jettySize=auto;html=1;exitX=1;exitY=0.5;exitDx=0;exitDy=0;entryX=0;entryY=0.5;entryDx=0;entryDy=0;endArrow=none;endFill=0;fontSize=10;fontFamily=Roboto;fontSource=https%3A%2F%2Ffonts.googleapis.com%2Fcss%3Ffamily%3DRoboto;startArrow=none;" parent="CbDLqZds7CBD2YCKXWCp-1" source="BtYsP3XDGlM1IENBePM0-2" target="CbDLqZds7CBD2YCKXWCp-78" edge="1">
          <mxGeometry relative="1" as="geometry">
            <mxPoint x="419.5" y="260" as="sourcePoint" />
          </mxGeometry>
        </mxCell>
        <mxCell id="CbDLqZds7CBD2YCKXWCp-84" value="" style="endArrow=none;html=1;fontFamily=Roboto;fontSource=https%3A%2F%2Ffonts.googleapis.com%2Fcss%3Ffamily%3DRoboto;exitX=0;exitY=0.5;exitDx=0;exitDy=0;entryX=0.5;entryY=1;entryDx=0;entryDy=0;" parent="CbDLqZds7CBD2YCKXWCp-1" source="CbDLqZds7CBD2YCKXWCp-77" target="CbDLqZds7CBD2YCKXWCp-85" edge="1">
          <mxGeometry width="50" height="50" relative="1" as="geometry">
            <mxPoint x="118" y="310" as="sourcePoint" />
            <mxPoint x="98" y="310" as="targetPoint" />
          </mxGeometry>
        </mxCell>
        <mxCell id="CbDLqZds7CBD2YCKXWCp-85" value="" style="ellipse;fontFamily=Roboto;fontSource=https%3A%2F%2Ffonts.googleapis.com%2Fcss%3Ffamily%3DRoboto;rotation=-90;" parent="CbDLqZds7CBD2YCKXWCp-1" vertex="1">
          <mxGeometry x="80" y="250" width="20" height="20" as="geometry" />
        </mxCell>
        <mxCell id="CbDLqZds7CBD2YCKXWCp-86" value="&lt;div&gt;Numero&lt;/div&gt;&lt;div&gt;progressivo&lt;/div&gt;" style="text;html=1;strokeColor=none;fillColor=none;align=center;verticalAlign=middle;whiteSpace=wrap;rounded=0;fontFamily=Roboto;fontSource=https%3A%2F%2Ffonts.googleapis.com%2Fcss%3Ffamily%3DRoboto;rotation=0;" parent="CbDLqZds7CBD2YCKXWCp-1" vertex="1">
          <mxGeometry x="20" y="250" width="40" height="20" as="geometry" />
        </mxCell>
        <mxCell id="CbDLqZds7CBD2YCKXWCp-87" value="" style="ellipse;fontFamily=Roboto;fontSource=https%3A%2F%2Ffonts.googleapis.com%2Fcss%3Ffamily%3DRoboto;fillColor=#000000;" parent="CbDLqZds7CBD2YCKXWCp-1" vertex="1">
          <mxGeometry x="100" y="280" width="20" height="20" as="geometry" />
        </mxCell>
        <mxCell id="CbDLqZds7CBD2YCKXWCp-88" value="Unità di misura" style="text;html=1;strokeColor=none;fillColor=none;align=center;verticalAlign=middle;whiteSpace=wrap;rounded=0;fontFamily=Roboto;fontSource=https%3A%2F%2Ffonts.googleapis.com%2Fcss%3Ffamily%3DRoboto;rotation=0;" parent="CbDLqZds7CBD2YCKXWCp-1" vertex="1">
          <mxGeometry x="644.75" y="250" width="50" height="20" as="geometry" />
        </mxCell>
        <mxCell id="CbDLqZds7CBD2YCKXWCp-89" value="" style="group;fontFamily=Roboto;fontSource=https%3A%2F%2Ffonts.googleapis.com%2Fcss%3Ffamily%3DRoboto;" parent="CbDLqZds7CBD2YCKXWCp-1" connectable="0" vertex="1">
          <mxGeometry x="474.75" y="170" width="40" height="70" as="geometry" />
        </mxCell>
        <mxCell id="CbDLqZds7CBD2YCKXWCp-90" value="" style="ellipse;whiteSpace=wrap;html=1;aspect=fixed;fontFamily=Roboto;fontSource=https%3A%2F%2Ffonts.googleapis.com%2Fcss%3Ffamily%3DRoboto;" parent="CbDLqZds7CBD2YCKXWCp-89" vertex="1">
          <mxGeometry x="10" y="10" width="20" height="20" as="geometry" />
        </mxCell>
        <mxCell id="CbDLqZds7CBD2YCKXWCp-91" value="" style="endArrow=none;html=1;entryX=0.5;entryY=1;entryDx=0;entryDy=0;fontFamily=Roboto;fontSource=https%3A%2F%2Ffonts.googleapis.com%2Fcss%3Ffamily%3DRoboto;" parent="CbDLqZds7CBD2YCKXWCp-89" target="CbDLqZds7CBD2YCKXWCp-90" edge="1">
          <mxGeometry width="50" height="50" relative="1" as="geometry">
            <mxPoint x="20" y="70" as="sourcePoint" />
            <mxPoint x="440" as="targetPoint" />
          </mxGeometry>
        </mxCell>
        <mxCell id="CbDLqZds7CBD2YCKXWCp-92" value="Evade" style="rhombus;whiteSpace=wrap;html=1;rounded=0;sketch=0;fontFamily=Roboto;fontSource=https%3A%2F%2Ffonts.googleapis.com%2Fcss%3Ffamily%3DRoboto;gradientColor=#ffd966;fillColor=#fff2cc;strokeColor=#d6b656;" parent="CbDLqZds7CBD2YCKXWCp-1" vertex="1">
          <mxGeometry x="139.5" y="561" width="80" height="40" as="geometry" />
        </mxCell>
        <mxCell id="CbDLqZds7CBD2YCKXWCp-93" value="(1,N)" style="text;html=1;strokeColor=none;fillColor=none;align=center;verticalAlign=middle;whiteSpace=wrap;rounded=0;fontFamily=Roboto;fontSource=https%3A%2F%2Ffonts.googleapis.com%2Fcss%3Ffamily%3DRoboto;" parent="CbDLqZds7CBD2YCKXWCp-1" vertex="1">
          <mxGeometry x="260" y="240" width="40" height="20" as="geometry" />
        </mxCell>
        <mxCell id="CbDLqZds7CBD2YCKXWCp-94" value="(1,N)" style="text;html=1;strokeColor=none;fillColor=none;align=center;verticalAlign=middle;whiteSpace=wrap;rounded=0;fontFamily=Roboto;fontSource=https%3A%2F%2Ffonts.googleapis.com%2Fcss%3Ffamily%3DRoboto;" parent="CbDLqZds7CBD2YCKXWCp-1" vertex="1">
          <mxGeometry x="400" y="621" width="40" height="20" as="geometry" />
        </mxCell>
        <mxCell id="CbDLqZds7CBD2YCKXWCp-95" value="" style="endArrow=none;html=1;entryX=0.5;entryY=1;entryDx=0;entryDy=0;fontFamily=Roboto;fontSource=https%3A%2F%2Ffonts.googleapis.com%2Fcss%3Ffamily%3DRoboto;exitX=1;exitY=0.5;exitDx=0;exitDy=0;" parent="CbDLqZds7CBD2YCKXWCp-1" source="CbDLqZds7CBD2YCKXWCp-78" target="CbDLqZds7CBD2YCKXWCp-115" edge="1">
          <mxGeometry x="624.75" y="250" width="50" height="50" as="geometry">
            <mxPoint x="604.75" y="260" as="sourcePoint" />
            <mxPoint x="674.75" y="690" as="targetPoint" />
          </mxGeometry>
        </mxCell>
        <mxCell id="CbDLqZds7CBD2YCKXWCp-96" value="" style="ellipse;whiteSpace=wrap;html=1;aspect=fixed;rotation=105;fontFamily=Roboto;fontSource=https%3A%2F%2Ffonts.googleapis.com%2Fcss%3Ffamily%3DRoboto;" parent="CbDLqZds7CBD2YCKXWCp-1" vertex="1">
          <mxGeometry x="649.9999999999999" y="40" width="20" height="20" as="geometry" />
        </mxCell>
        <mxCell id="CbDLqZds7CBD2YCKXWCp-97" value="" style="ellipse;whiteSpace=wrap;html=1;aspect=fixed;rotation=75;fontFamily=Roboto;fontSource=https%3A%2F%2Ffonts.googleapis.com%2Fcss%3Ffamily%3DRoboto;" parent="CbDLqZds7CBD2YCKXWCp-1" vertex="1">
          <mxGeometry x="649.9999999999999" y="100" width="20" height="20" as="geometry" />
        </mxCell>
        <mxCell id="CbDLqZds7CBD2YCKXWCp-98" value="Provincia" style="text;html=1;strokeColor=none;fillColor=none;align=center;verticalAlign=middle;whiteSpace=wrap;rounded=0;rotation=0;fontFamily=Roboto;fontSource=https%3A%2F%2Ffonts.googleapis.com%2Fcss%3Ffamily%3DRoboto;" parent="CbDLqZds7CBD2YCKXWCp-1" vertex="1">
          <mxGeometry x="670" y="100" width="55" height="20" as="geometry" />
        </mxCell>
        <mxCell id="CbDLqZds7CBD2YCKXWCp-99" value="Comune" style="text;html=1;strokeColor=none;fillColor=none;align=center;verticalAlign=middle;whiteSpace=wrap;rounded=0;rotation=0;fontFamily=Roboto;fontSource=https%3A%2F%2Ffonts.googleapis.com%2Fcss%3Ffamily%3DRoboto;" parent="CbDLqZds7CBD2YCKXWCp-1" vertex="1">
          <mxGeometry x="670" y="40" width="55" height="20" as="geometry" />
        </mxCell>
        <mxCell id="CbDLqZds7CBD2YCKXWCp-100" value="&lt;div&gt;Fornitore&lt;/div&gt;" style="rounded=0;whiteSpace=wrap;html=1;fontFamily=Roboto;fontSource=https%3A%2F%2Ffonts.googleapis.com%2Fcss%3Ffamily%3DRoboto;fillColor=#f8cecc;strokeColor=#b85450;gradientColor=#ea6b66;" parent="CbDLqZds7CBD2YCKXWCp-1" vertex="1">
          <mxGeometry x="280" y="601" width="120" height="40" as="geometry" />
        </mxCell>
        <mxCell id="CbDLqZds7CBD2YCKXWCp-101" value="&lt;div&gt;Dipartimento&lt;/div&gt;" style="rounded=0;whiteSpace=wrap;html=1;fontFamily=Roboto;fontSource=https%3A%2F%2Ffonts.googleapis.com%2Fcss%3Ffamily%3DRoboto;fillColor=#f8cecc;strokeColor=#b85450;gradientColor=#ea6b66;" parent="CbDLqZds7CBD2YCKXWCp-1" vertex="1">
          <mxGeometry x="140" y="80" width="120" height="40" as="geometry" />
        </mxCell>
        <mxCell id="CbDLqZds7CBD2YCKXWCp-102" value="&lt;div&gt;(0, N)&lt;/div&gt;" style="text;html=1;align=center;verticalAlign=middle;resizable=0;points=[];autosize=1;strokeColor=none;rotation=0;fontFamily=Roboto;fontSource=https%3A%2F%2Ffonts.googleapis.com%2Fcss%3Ffamily%3DRoboto;" parent="CbDLqZds7CBD2YCKXWCp-1" vertex="1">
          <mxGeometry x="389.5" y="581" width="40" height="20" as="geometry" />
        </mxCell>
        <mxCell id="CbDLqZds7CBD2YCKXWCp-103" value="" style="endArrow=none;html=1;exitX=0.5;exitY=0;exitDx=0;exitDy=0;fontFamily=Roboto;fontSource=https%3A%2F%2Ffonts.googleapis.com%2Fcss%3Ffamily%3DRoboto;startArrow=none;" parent="CbDLqZds7CBD2YCKXWCp-1" source="CbDLqZds7CBD2YCKXWCp-106" edge="1">
          <mxGeometry width="50" height="50" relative="1" as="geometry">
            <mxPoint x="98" y="290" as="sourcePoint" />
            <mxPoint x="208" y="230" as="targetPoint" />
            <Array as="points">
              <mxPoint x="110" y="230" />
            </Array>
          </mxGeometry>
        </mxCell>
        <mxCell id="CbDLqZds7CBD2YCKXWCp-104" value="Quantità" style="text;html=1;strokeColor=none;fillColor=none;align=center;verticalAlign=middle;whiteSpace=wrap;rounded=0;fontFamily=Roboto;fontSource=https%3A%2F%2Ffonts.googleapis.com%2Fcss%3Ffamily%3DRoboto;" parent="CbDLqZds7CBD2YCKXWCp-1" vertex="1">
          <mxGeometry x="440" y="315" width="40" height="20" as="geometry" />
        </mxCell>
        <mxCell id="CbDLqZds7CBD2YCKXWCp-105" value="" style="ellipse;fontFamily=Roboto;fontSource=https%3A%2F%2Ffonts.googleapis.com%2Fcss%3Ffamily%3DRoboto;fillColor=#000000;" parent="CbDLqZds7CBD2YCKXWCp-1" vertex="1">
          <mxGeometry x="195" y="225" width="10" height="10" as="geometry" />
        </mxCell>
        <mxCell id="CbDLqZds7CBD2YCKXWCp-106" value="" style="ellipse;fontFamily=Roboto;fontSource=https%3A%2F%2Ffonts.googleapis.com%2Fcss%3Ffamily%3DRoboto;fillColor=#000000;" parent="CbDLqZds7CBD2YCKXWCp-1" vertex="1">
          <mxGeometry x="105" y="255" width="10" height="10" as="geometry" />
        </mxCell>
        <mxCell id="CbDLqZds7CBD2YCKXWCp-107" value="" style="endArrow=none;html=1;exitX=0.5;exitY=0;exitDx=0;exitDy=0;fontFamily=Roboto;fontSource=https%3A%2F%2Ffonts.googleapis.com%2Fcss%3Ffamily%3DRoboto;" parent="CbDLqZds7CBD2YCKXWCp-1" source="CbDLqZds7CBD2YCKXWCp-87" target="CbDLqZds7CBD2YCKXWCp-106" edge="1">
          <mxGeometry width="50" height="50" relative="1" as="geometry">
            <mxPoint x="108" y="330" as="sourcePoint" />
            <mxPoint x="208" y="250" as="targetPoint" />
            <Array as="points" />
          </mxGeometry>
        </mxCell>
        <mxCell id="CbDLqZds7CBD2YCKXWCp-109" value="&lt;div&gt;Codice&lt;/div&gt;&lt;div&gt;ordine&lt;/div&gt;" style="text;html=1;strokeColor=none;fillColor=none;align=center;verticalAlign=middle;whiteSpace=wrap;rounded=0;fontFamily=Roboto;fontSource=https%3A%2F%2Ffonts.googleapis.com%2Fcss%3Ffamily%3DRoboto;" parent="CbDLqZds7CBD2YCKXWCp-1" vertex="1">
          <mxGeometry x="90" y="399" width="80" height="30" as="geometry" />
        </mxCell>
        <mxCell id="CbDLqZds7CBD2YCKXWCp-110" value="Ordine" style="rounded=0;whiteSpace=wrap;html=1;fontFamily=Roboto;fontSource=https%3A%2F%2Ffonts.googleapis.com%2Fcss%3Ffamily%3DRoboto;fillColor=#f8cecc;strokeColor=#b85450;gradientColor=#ea6b66;" parent="CbDLqZds7CBD2YCKXWCp-1" vertex="1">
          <mxGeometry x="120" y="460.5" width="120" height="40" as="geometry" />
        </mxCell>
        <mxCell id="CbDLqZds7CBD2YCKXWCp-111" value="&lt;div&gt;Descrizione&lt;/div&gt;" style="text;html=1;strokeColor=none;fillColor=none;align=center;verticalAlign=middle;whiteSpace=wrap;rounded=0;fontFamily=Roboto;fontSource=https%3A%2F%2Ffonts.googleapis.com%2Fcss%3Ffamily%3DRoboto;" parent="CbDLqZds7CBD2YCKXWCp-1" vertex="1">
          <mxGeometry x="474.75" y="160" width="40" height="20" as="geometry" />
        </mxCell>
        <mxCell id="CbDLqZds7CBD2YCKXWCp-112" value="" style="ellipse;whiteSpace=wrap;html=1;aspect=fixed;fontFamily=Roboto;fontSource=https%3A%2F%2Ffonts.googleapis.com%2Fcss%3Ffamily%3DRoboto;" parent="CbDLqZds7CBD2YCKXWCp-1" vertex="1">
          <mxGeometry x="584.75" y="180" width="20" height="20" as="geometry" />
        </mxCell>
        <mxCell id="CbDLqZds7CBD2YCKXWCp-113" value="" style="endArrow=none;html=1;entryX=0.5;entryY=1;entryDx=0;entryDy=0;fontFamily=Roboto;fontSource=https%3A%2F%2Ffonts.googleapis.com%2Fcss%3Ffamily%3DRoboto;" parent="CbDLqZds7CBD2YCKXWCp-1" target="CbDLqZds7CBD2YCKXWCp-112" edge="1">
          <mxGeometry x="574.75" y="170" width="50" height="50" as="geometry">
            <mxPoint x="594.75" y="240" as="sourcePoint" />
            <mxPoint x="1014.75" y="170" as="targetPoint" />
          </mxGeometry>
        </mxCell>
        <mxCell id="CbDLqZds7CBD2YCKXWCp-114" value="&lt;div&gt;Classe&lt;/div&gt;&lt;div&gt;merceologica&lt;br&gt;&lt;/div&gt;" style="text;html=1;strokeColor=none;fillColor=none;align=center;verticalAlign=middle;whiteSpace=wrap;rounded=0;fontFamily=Roboto;fontSource=https%3A%2F%2Ffonts.googleapis.com%2Fcss%3Ffamily%3DRoboto;" parent="CbDLqZds7CBD2YCKXWCp-1" vertex="1">
          <mxGeometry x="574.75" y="160" width="40" height="10" as="geometry" />
        </mxCell>
        <mxCell id="CbDLqZds7CBD2YCKXWCp-115" value="" style="ellipse;whiteSpace=wrap;html=1;aspect=fixed;fontFamily=Roboto;fontSource=https%3A%2F%2Ffonts.googleapis.com%2Fcss%3Ffamily%3DRoboto;rotation=90;" parent="CbDLqZds7CBD2YCKXWCp-1" vertex="1">
          <mxGeometry x="624.75" y="250" width="20" height="20" as="geometry" />
        </mxCell>
        <mxCell id="CbDLqZds7CBD2YCKXWCp-117" value="" style="endArrow=none;html=1;fontFamily=Roboto;fontSource=https%3A%2F%2Ffonts.googleapis.com%2Fcss%3Ffamily%3DRoboto;startSize=6;endSize=6;exitX=1;exitY=0.5;exitDx=0;exitDy=0;entryX=0.5;entryY=1;entryDx=0;entryDy=0;" parent="CbDLqZds7CBD2YCKXWCp-1" source="CbDLqZds7CBD2YCKXWCp-100" edge="1">
          <mxGeometry width="50" height="50" relative="1" as="geometry">
            <mxPoint x="390" y="440" as="sourcePoint" />
            <mxPoint x="544.75" y="469" as="targetPoint" />
            <Array as="points">
              <mxPoint x="545" y="621" />
            </Array>
          </mxGeometry>
        </mxCell>
        <mxCell id="CbDLqZds7CBD2YCKXWCp-118" value="" style="endArrow=none;html=1;fontFamily=Roboto;fontSource=https%3A%2F%2Ffonts.googleapis.com%2Fcss%3Ffamily%3DRoboto;startSize=6;endSize=6;exitX=0.5;exitY=0;exitDx=0;exitDy=0;entryX=0.5;entryY=1;entryDx=0;entryDy=0;" parent="CbDLqZds7CBD2YCKXWCp-1" source="CbDLqZds7CBD2YCKXWCp-92" target="CbDLqZds7CBD2YCKXWCp-110" edge="1">
          <mxGeometry width="50" height="50" relative="1" as="geometry">
            <mxPoint x="370" y="520" as="sourcePoint" />
            <mxPoint x="200" y="510" as="targetPoint" />
          </mxGeometry>
        </mxCell>
        <mxCell id="CbDLqZds7CBD2YCKXWCp-119" value="" style="endArrow=none;html=1;fontFamily=Roboto;fontSource=https%3A%2F%2Ffonts.googleapis.com%2Fcss%3Ffamily%3DRoboto;startSize=6;endSize=6;entryX=0.5;entryY=1;entryDx=0;entryDy=0;exitX=0;exitY=0.5;exitDx=0;exitDy=0;" parent="CbDLqZds7CBD2YCKXWCp-1" source="CbDLqZds7CBD2YCKXWCp-100" target="CbDLqZds7CBD2YCKXWCp-92" edge="1">
          <mxGeometry width="50" height="50" relative="1" as="geometry">
            <mxPoint x="209.5" y="671" as="sourcePoint" />
            <mxPoint x="259.5" y="621" as="targetPoint" />
            <Array as="points">
              <mxPoint x="179.5" y="621" />
            </Array>
          </mxGeometry>
        </mxCell>
        <mxCell id="CbDLqZds7CBD2YCKXWCp-120" value="" style="endArrow=none;html=1;fontFamily=Roboto;fontSource=https%3A%2F%2Ffonts.googleapis.com%2Fcss%3Ffamily%3DRoboto;startSize=6;endSize=6;exitX=1;exitY=0.5;exitDx=0;exitDy=0;entryX=0.5;entryY=1;entryDx=0;entryDy=0;" parent="CbDLqZds7CBD2YCKXWCp-1" source="CbDLqZds7CBD2YCKXWCp-110" target="RAPCOTLdBc6ylrq6KQYd-0" edge="1">
          <mxGeometry width="50" height="50" relative="1" as="geometry">
            <mxPoint x="260" y="350" as="sourcePoint" />
            <mxPoint x="379.5" y="280" as="targetPoint" />
            <Array as="points">
              <mxPoint x="380" y="481" />
            </Array>
          </mxGeometry>
        </mxCell>
        <mxCell id="CbDLqZds7CBD2YCKXWCp-121" value="" style="endArrow=none;html=1;fontFamily=Roboto;fontSource=https%3A%2F%2Ffonts.googleapis.com%2Fcss%3Ffamily%3DRoboto;startSize=6;endSize=6;entryX=0.5;entryY=1;entryDx=0;entryDy=0;exitX=0.5;exitY=0;exitDx=0;exitDy=0;" parent="CbDLqZds7CBD2YCKXWCp-1" source="4-UfjcnXdsVet0wkfiN8-0" target="CbDLqZds7CBD2YCKXWCp-78" edge="1">
          <mxGeometry width="50" height="50" relative="1" as="geometry">
            <mxPoint x="544.75" y="429" as="sourcePoint" />
            <mxPoint x="460" y="380" as="targetPoint" />
          </mxGeometry>
        </mxCell>
        <mxCell id="CbDLqZds7CBD2YCKXWCp-122" value="" style="ellipse;whiteSpace=wrap;html=1;aspect=fixed;fontFamily=Roboto;fontSource=https%3A%2F%2Ffonts.googleapis.com%2Fcss%3Ffamily%3DRoboto;rotation=-180;" parent="CbDLqZds7CBD2YCKXWCp-1" vertex="1">
          <mxGeometry x="579.38" y="512" width="20" height="20" as="geometry" />
        </mxCell>
        <mxCell id="CbDLqZds7CBD2YCKXWCp-123" value="Sconto" style="text;html=1;strokeColor=none;fillColor=none;align=center;verticalAlign=middle;whiteSpace=wrap;rounded=0;fontFamily=Roboto;fontSource=https%3A%2F%2Ffonts.googleapis.com%2Fcss%3Ffamily%3DRoboto;rotation=0;" parent="CbDLqZds7CBD2YCKXWCp-1" vertex="1">
          <mxGeometry x="569.38" y="531" width="40" height="20" as="geometry" />
        </mxCell>
        <mxCell id="CbDLqZds7CBD2YCKXWCp-124" value="" style="ellipse;whiteSpace=wrap;html=1;aspect=fixed;fontFamily=Roboto;fontSource=https%3A%2F%2Ffonts.googleapis.com%2Fcss%3Ffamily%3DRoboto;rotation=-180;" parent="CbDLqZds7CBD2YCKXWCp-1" vertex="1">
          <mxGeometry x="289.5" y="661" width="20" height="20" as="geometry" />
        </mxCell>
        <mxCell id="CbDLqZds7CBD2YCKXWCp-125" value="&lt;div&gt;Indirizzo&lt;/div&gt;&lt;div&gt;email&lt;/div&gt;" style="text;html=1;strokeColor=none;fillColor=none;align=center;verticalAlign=middle;whiteSpace=wrap;rounded=0;fontFamily=Roboto;fontSource=https%3A%2F%2Ffonts.googleapis.com%2Fcss%3Ffamily%3DRoboto;rotation=0;" parent="CbDLqZds7CBD2YCKXWCp-1" vertex="1">
          <mxGeometry x="279.5" y="686" width="40" height="20" as="geometry" />
        </mxCell>
        <mxCell id="CbDLqZds7CBD2YCKXWCp-126" value="" style="endArrow=none;html=1;entryX=0.5;entryY=1;entryDx=0;entryDy=0;fontFamily=Roboto;fontSource=https%3A%2F%2Ffonts.googleapis.com%2Fcss%3Ffamily%3DRoboto;" parent="CbDLqZds7CBD2YCKXWCp-1" target="CbDLqZds7CBD2YCKXWCp-124" edge="1">
          <mxGeometry x="229.5" y="651" width="50" height="50" as="geometry">
            <mxPoint x="299.5" y="641" as="sourcePoint" />
            <mxPoint x="-160.5" y="701" as="targetPoint" />
          </mxGeometry>
        </mxCell>
        <mxCell id="CbDLqZds7CBD2YCKXWCp-129" value="" style="endArrow=none;html=1;entryX=0.5;entryY=0;entryDx=0;entryDy=0;fontFamily=Roboto;fontSource=https%3A%2F%2Ffonts.googleapis.com%2Fcss%3Ffamily%3DRoboto;" parent="CbDLqZds7CBD2YCKXWCp-1" target="FNRLJ4EDZDk3xKdOX3_l-1" edge="1">
          <mxGeometry x="310" y="651" width="50" height="50" as="geometry">
            <mxPoint x="380" y="641" as="sourcePoint" />
            <mxPoint x="380" y="661" as="targetPoint" />
          </mxGeometry>
        </mxCell>
        <mxCell id="CbDLqZds7CBD2YCKXWCp-131" value="&lt;div&gt;Quantita&lt;/div&gt;&lt;div&gt;minima&lt;br&gt;&lt;/div&gt;" style="text;html=1;strokeColor=none;fillColor=none;align=center;verticalAlign=middle;whiteSpace=wrap;rounded=0;fontFamily=Roboto;fontSource=https%3A%2F%2Ffonts.googleapis.com%2Fcss%3Ffamily%3DRoboto;" parent="CbDLqZds7CBD2YCKXWCp-1" vertex="1">
          <mxGeometry x="569.38" y="388" width="40" height="40" as="geometry" />
        </mxCell>
        <mxCell id="CbDLqZds7CBD2YCKXWCp-132" value="(1,N)" style="text;html=1;strokeColor=none;fillColor=none;align=center;verticalAlign=middle;whiteSpace=wrap;rounded=0;fontFamily=Roboto;fontSource=https%3A%2F%2Ffonts.googleapis.com%2Fcss%3Ffamily%3DRoboto;" parent="CbDLqZds7CBD2YCKXWCp-1" vertex="1">
          <mxGeometry x="544.75" y="280" width="40" height="20" as="geometry" />
        </mxCell>
        <mxCell id="CbDLqZds7CBD2YCKXWCp-133" value="(1,N)" style="text;html=1;strokeColor=none;fillColor=none;align=center;verticalAlign=middle;whiteSpace=wrap;rounded=0;fontFamily=Roboto;fontSource=https%3A%2F%2Ffonts.googleapis.com%2Fcss%3Ffamily%3DRoboto;" parent="CbDLqZds7CBD2YCKXWCp-1" vertex="1">
          <mxGeometry x="239.5" y="621" width="40" height="20" as="geometry" />
        </mxCell>
        <mxCell id="CbDLqZds7CBD2YCKXWCp-134" value="(1,N)" style="text;html=1;strokeColor=none;fillColor=none;align=center;verticalAlign=middle;whiteSpace=wrap;rounded=0;fontFamily=Roboto;fontSource=https%3A%2F%2Ffonts.googleapis.com%2Fcss%3Ffamily%3DRoboto;" parent="CbDLqZds7CBD2YCKXWCp-1" vertex="1">
          <mxGeometry x="180" y="499.5" width="40" height="20" as="geometry" />
        </mxCell>
        <mxCell id="CbDLqZds7CBD2YCKXWCp-135" value="(0,N)" style="text;html=1;strokeColor=none;fillColor=none;align=center;verticalAlign=middle;whiteSpace=wrap;rounded=0;fontFamily=Roboto;fontSource=https%3A%2F%2Ffonts.googleapis.com%2Fcss%3Ffamily%3DRoboto;" parent="CbDLqZds7CBD2YCKXWCp-1" vertex="1">
          <mxGeometry x="240" y="480.5" width="40" height="20" as="geometry" />
        </mxCell>
        <mxCell id="CbDLqZds7CBD2YCKXWCp-136" value="(1,N)" style="text;html=1;strokeColor=none;fillColor=none;align=center;verticalAlign=middle;whiteSpace=wrap;rounded=0;fontFamily=Roboto;fontSource=https%3A%2F%2Ffonts.googleapis.com%2Fcss%3Ffamily%3DRoboto;" parent="CbDLqZds7CBD2YCKXWCp-1" vertex="1">
          <mxGeometry x="444.75" y="240" width="40" height="20" as="geometry" />
        </mxCell>
        <mxCell id="CbDLqZds7CBD2YCKXWCp-138" value="&lt;div&gt;Stato&lt;/div&gt;&lt;div&gt;ordine&lt;br&gt;&lt;/div&gt;" style="text;html=1;strokeColor=none;fillColor=none;align=center;verticalAlign=middle;whiteSpace=wrap;rounded=0;fontFamily=Roboto;fontSource=https%3A%2F%2Ffonts.googleapis.com%2Fcss%3Ffamily%3DRoboto;" parent="CbDLqZds7CBD2YCKXWCp-1" vertex="1">
          <mxGeometry x="40" y="469" width="40" height="20" as="geometry" />
        </mxCell>
        <mxCell id="CbDLqZds7CBD2YCKXWCp-139" value="&lt;span style=&quot;color: rgba(0, 0, 0, 0); font-size: 0px;&quot;&gt;%3CmxGraphModel%3E%3Croot%3E%3CmxCell%20id%3D%220%22%2F%3E%3CmxCell%20id%3D%221%22%20parent%3D%220%22%2F%3E%3CmxCell%20id%3D%222%22%20value%3D%22%22%20style%3D%22group%3BfontFamily%3DRoboto%3BfontSource%3Dhttps%253A%252F%252Ffonts.googleapis.com%252Fcss%253Ffamily%253DRoboto%3B%22%20connectable%3D%220%22%20vertex%3D%221%22%20parent%3D%221%22%3E%3CmxGeometry%20x%3D%2250%22%20y%3D%22450%22%20width%3D%22130%22%20height%3D%22140%22%20as%3D%22geometry%22%2F%3E%3C%2FmxCell%3E%3CmxCell%20id%3D%223%22%20value%3D%22Ordine%22%20style%3D%22rounded%3D0%3BwhiteSpace%3Dwrap%3Bhtml%3D1%3BfontFamily%3DRoboto%3BfontSource%3Dhttps%253A%252F%252Ffonts.googleapis.com%252Fcss%253Ffamily%253DRoboto%3BfillColor%3D%23f8cecc%3BstrokeColor%3D%23b85450%3BgradientColor%3D%23ea6b66%3B%22%20vertex%3D%221%22%20parent%3D%222%22%3E%3CmxGeometry%20x%3D%2240%22%20y%3D%2280%22%20width%3D%22120%22%20height%3D%2260%22%20as%3D%22geometry%22%2F%3E%3C%2FmxCell%3E%3CmxCell%20id%3D%224%22%20value%3D%22%22%20style%3D%22group%3BfontFamily%3DRoboto%3BfontSource%3Dhttps%253A%252F%252Ffonts.googleapis.com%252Fcss%253Ffamily%253DRoboto%3B%22%20connectable%3D%220%22%20vertex%3D%221%22%20parent%3D%222%22%3E%3CmxGeometry%20x%3D%2290%22%20width%3D%2240%22%20height%3D%2280%22%20as%3D%22geometry%22%2F%3E%3C%2FmxCell%3E%3CmxCell%20id%3D%225%22%20value%3D%22%22%20style%3D%22ellipse%3BwhiteSpace%3Dwrap%3Bhtml%3D1%3Baspect%3Dfixed%3BfontFamily%3DRoboto%3BfontSource%3Dhttps%253A%252F%252Ffonts.googleapis.com%252Fcss%253Ffamily%253DRoboto%3B%22%20vertex%3D%221%22%20parent%3D%224%22%3E%3CmxGeometry%20x%3D%2230%22%20y%3D%2230%22%20width%3D%2220%22%20height%3D%2220%22%20as%3D%22geometry%22%2F%3E%3C%2FmxCell%3E%3CmxCell%20id%3D%226%22%20value%3D%22%26lt%3Bdiv%26gt%3BData%20emissione%26lt%3B%2Fdiv%26gt%3B%22%20style%3D%22text%3Bhtml%3D1%3BstrokeColor%3Dnone%3BfillColor%3Dnone%3Balign%3Dcenter%3BverticalAlign%3Dmiddle%3BwhiteSpace%3Dwrap%3Brounded%3D0%3BfontFamily%3DRoboto%3BfontSource%3Dhttps%253A%252F%252Ffonts.googleapis.com%252Fcss%253Ffamily%253DRoboto%3B%22%20vertex%3D%221%22%20parent%3D%224%22%3E%3CmxGeometry%20width%3D%2240%22%20height%3D%2220%22%20as%3D%22geometry%22%2F%3E%3C%2FmxCell%3E%3CmxCell%20id%3D%227%22%20value%3D%22%22%20style%3D%22group%3BfontFamily%3DRoboto%3BfontSource%3Dhttps%253A%252F%252Ffonts.googleapis.com%252Fcss%253Ffamily%253DRoboto%3B%22%20connectable%3D%220%22%20vertex%3D%221%22%20parent%3D%222%22%3E%3CmxGeometry%20x%3D%2210%22%20y%3D%2210%22%20width%3D%2260%22%20height%3D%2270%22%20as%3D%22geometry%22%2F%3E%3C%2FmxCell%3E%3CmxCell%20id%3D%228%22%20value%3D%22%22%20style%3D%22ellipse%3BfontFamily%3DRoboto%3BfontSource%3Dhttps%253A%252F%252Ffonts.googleapis.com%252Fcss%253Ffamily%253DRoboto%3BfillColor%3D%23000000%3B%22%20vertex%3D%221%22%20parent%3D%227%22%3E%3CmxGeometry%20x%3D%2210%22%20y%3D%2220%22%20width%3D%2220%22%20height%3D%2220%22%20as%3D%22geometry%22%2F%3E%3C%2FmxCell%3E%3CmxCell%20id%3D%229%22%20value%3D%22Codice%20ordine%22%20style%3D%22text%3Bhtml%3D1%3BstrokeColor%3Dnone%3BfillColor%3Dnone%3Balign%3Dcenter%3BverticalAlign%3Dmiddle%3BwhiteSpace%3Dwrap%3Brounded%3D0%3BfontFamily%3DRoboto%3BfontSource%3Dhttps%253A%252F%252Ffonts.googleapis.com%252Fcss%253Ffamily%253DRoboto%3B%22%20vertex%3D%221%22%20parent%3D%227%22%3E%3CmxGeometry%20x%3D%22-20%22%20y%3D%22-10%22%20width%3D%2280%22%20height%3D%2220%22%20as%3D%22geometry%22%2F%3E%3C%2FmxCell%3E%3CmxCell%20id%3D%2210%22%20value%3D%22%22%20style%3D%22endArrow%3Dnone%3Bhtml%3D1%3BfontFamily%3DRoboto%3BfontSource%3Dhttps%253A%252F%252Ffonts.googleapis.com%252Fcss%253Ffamily%253DRoboto%3BexitX%3D0.25%3BexitY%3D0%3BexitDx%3D0%3BexitDy%3D0%3B%22%20edge%3D%221%22%20parent%3D%222%22%20source%3D%223%22%20target%3D%228%22%3E%3CmxGeometry%20width%3D%2250%22%20height%3D%2250%22%20relative%3D%221%22%20as%3D%22geometry%22%3E%3CmxPoint%20x%3D%2240%22%20y%3D%2280%22%20as%3D%22sourcePoint%22%2F%3E%3CmxPoint%20x%3D%2240%22%20y%3D%2250%22%20as%3D%22targetPoint%22%2F%3E%3C%2FmxGeometry%3E%3C%2FmxCell%3E%3CmxCell%20id%3D%2211%22%20value%3D%22%22%20style%3D%22endArrow%3Dnone%3Bhtml%3D1%3BfontFamily%3DRoboto%3BfontSource%3Dhttps%253A%252F%252Ffonts.googleapis.com%252Fcss%253Ffamily%253DRoboto%3BexitX%3D0.75%3BexitY%3D0%3BexitDx%3D0%3BexitDy%3D0%3BentryX%3D0.5%3BentryY%3D1%3BentryDx%3D0%3BentryDy%3D0%3B%22%20edge%3D%221%22%20parent%3D%222%22%20source%3D%223%22%20target%3D%225%22%3E%3CmxGeometry%20x%3D%22100%22%20y%3D%2210%22%20width%3D%2250%22%20height%3D%2250%22%20as%3D%22geometry%22%3E%3CmxPoint%20x%3D%22120%22%20y%3D%2280%22%20as%3D%22sourcePoint%22%2F%3E%3CmxPoint%20x%3D%22123%22%20y%3D%2246%22%20as%3D%22targetPoint%22%2F%3E%3CArray%20as%3D%22points%22%2F%3E%3C%2FmxGeometry%3E%3C%2FmxCell%3E%3C%2Froot%3E%3C%2FmxGraphModel%3E&lt;/span&gt;" style="ellipse;whiteSpace=wrap;html=1;aspect=fixed;fontFamily=Roboto;fontSource=https%3A%2F%2Ffonts.googleapis.com%2Fcss%3Ffamily%3DRoboto;rotation=0;" parent="CbDLqZds7CBD2YCKXWCp-1" vertex="1">
          <mxGeometry x="85" y="470" width="20" height="20" as="geometry" />
        </mxCell>
        <mxCell id="RAPCOTLdBc6ylrq6KQYd-0" value="Include" style="rounded=0;whiteSpace=wrap;html=1;fontFamily=Roboto;fontSource=https%3A%2F%2Ffonts.googleapis.com%2Fcss%3Ffamily%3DRoboto;fillColor=#f8cecc;strokeColor=#b85450;gradientColor=#ea6b66;" parent="CbDLqZds7CBD2YCKXWCp-1" vertex="1">
          <mxGeometry x="320" y="340" width="120" height="40" as="geometry" />
        </mxCell>
        <mxCell id="gB0TdmO39OjKE31-piT5-0" style="edgeStyle=orthogonalEdgeStyle;rounded=0;orthogonalLoop=1;jettySize=auto;html=1;exitX=0.5;exitY=1;exitDx=0;exitDy=0;entryX=0.25;entryY=0;entryDx=0;entryDy=0;endArrow=none;endFill=0;" parent="CbDLqZds7CBD2YCKXWCp-1" source="BtYsP3XDGlM1IENBePM0-0" target="RAPCOTLdBc6ylrq6KQYd-0" edge="1">
          <mxGeometry relative="1" as="geometry" />
        </mxCell>
        <mxCell id="BtYsP3XDGlM1IENBePM0-0" value="&lt;font data-font-src=&quot;https://fonts.googleapis.com/css?family=Roboto&quot;&gt;I-R&lt;/font&gt;" style="rhombus;whiteSpace=wrap;html=1;rounded=0;sketch=0;fontFamily=Roboto;fontSource=https%3A%2F%2Ffonts.googleapis.com%2Fcss%3Ffamily%3DRoboto;gradientColor=#ffd966;fillColor=#fff2cc;strokeColor=#d6b656;" parent="CbDLqZds7CBD2YCKXWCp-1" vertex="1">
          <mxGeometry x="310" y="240" width="56" height="40" as="geometry" />
        </mxCell>
        <mxCell id="BtYsP3XDGlM1IENBePM0-1" value="" style="edgeStyle=none;rounded=0;sketch=0;orthogonalLoop=1;jettySize=auto;html=1;exitX=1;exitY=0.5;exitDx=0;exitDy=0;entryX=0;entryY=0.5;entryDx=0;entryDy=0;endArrow=none;endFill=0;fontSize=10;fontFamily=Roboto;fontSource=https%3A%2F%2Ffonts.googleapis.com%2Fcss%3Ffamily%3DRoboto;" parent="CbDLqZds7CBD2YCKXWCp-1" source="CbDLqZds7CBD2YCKXWCp-77" target="BtYsP3XDGlM1IENBePM0-0" edge="1">
          <mxGeometry relative="1" as="geometry">
            <mxPoint x="260" y="260" as="sourcePoint" />
            <mxPoint x="339.5" y="260" as="targetPoint" />
          </mxGeometry>
        </mxCell>
        <mxCell id="gB0TdmO39OjKE31-piT5-1" style="edgeStyle=orthogonalEdgeStyle;rounded=0;orthogonalLoop=1;jettySize=auto;html=1;exitX=0.5;exitY=1;exitDx=0;exitDy=0;entryX=0.75;entryY=0;entryDx=0;entryDy=0;endArrow=none;endFill=0;" parent="CbDLqZds7CBD2YCKXWCp-1" source="BtYsP3XDGlM1IENBePM0-2" target="RAPCOTLdBc6ylrq6KQYd-0" edge="1">
          <mxGeometry relative="1" as="geometry" />
        </mxCell>
        <mxCell id="BtYsP3XDGlM1IENBePM0-2" value="&lt;font data-font-src=&quot;https://fonts.googleapis.com/css?family=Roboto&quot;&gt;I-A&lt;/font&gt;" style="rhombus;whiteSpace=wrap;html=1;rounded=0;sketch=0;fontFamily=Roboto;fontSource=https%3A%2F%2Ffonts.googleapis.com%2Fcss%3Ffamily%3DRoboto;gradientColor=#ffd966;fillColor=#fff2cc;strokeColor=#d6b656;" parent="CbDLqZds7CBD2YCKXWCp-1" vertex="1">
          <mxGeometry x="394" y="240" width="56" height="40" as="geometry" />
        </mxCell>
        <mxCell id="gB0TdmO39OjKE31-piT5-2" value="&lt;font data-font-src=&quot;https://fonts.googleapis.com/css?family=Roboto&quot;&gt;I-O&lt;/font&gt;" style="rhombus;whiteSpace=wrap;html=1;rounded=0;sketch=0;fontFamily=Roboto;fontSource=https%3A%2F%2Ffonts.googleapis.com%2Fcss%3Ffamily%3DRoboto;gradientColor=#ffd966;fillColor=#fff2cc;strokeColor=#d6b656;" parent="CbDLqZds7CBD2YCKXWCp-1" vertex="1">
          <mxGeometry x="352" y="460.5" width="56" height="40" as="geometry" />
        </mxCell>
        <mxCell id="4-UfjcnXdsVet0wkfiN8-0" value="Fornisce" style="rounded=0;whiteSpace=wrap;html=1;fontFamily=Roboto;fontSource=https%3A%2F%2Ffonts.googleapis.com%2Fcss%3Ffamily%3DRoboto;fillColor=#f8cecc;strokeColor=#b85450;gradientColor=#ea6b66;" parent="CbDLqZds7CBD2YCKXWCp-1" vertex="1">
          <mxGeometry x="485.13" y="460" width="120" height="40" as="geometry" />
        </mxCell>
        <mxCell id="awnBGyy5weG3ShqraHsp-0" value="A-F" style="rhombus;whiteSpace=wrap;html=1;rounded=0;sketch=0;fontFamily=Roboto;fontSource=https%3A%2F%2Ffonts.googleapis.com%2Fcss%3Ffamily%3DRoboto;gradientColor=#ffd966;fillColor=#fff2cc;strokeColor=#d6b656;" parent="CbDLqZds7CBD2YCKXWCp-1" vertex="1">
          <mxGeometry x="516.75" y="325" width="56" height="40" as="geometry" />
        </mxCell>
        <mxCell id="awnBGyy5weG3ShqraHsp-1" value="F-F" style="rhombus;whiteSpace=wrap;html=1;rounded=0;sketch=0;fontFamily=Roboto;fontSource=https%3A%2F%2Ffonts.googleapis.com%2Fcss%3Ffamily%3DRoboto;gradientColor=#ffd966;fillColor=#fff2cc;strokeColor=#d6b656;" parent="CbDLqZds7CBD2YCKXWCp-1" vertex="1">
          <mxGeometry x="517.13" y="601" width="56" height="40" as="geometry" />
        </mxCell>
        <mxCell id="awnBGyy5weG3ShqraHsp-2" value="" style="endArrow=none;html=1;entryX=1;entryY=0.5;entryDx=0;entryDy=0;" parent="CbDLqZds7CBD2YCKXWCp-1" target="ENUgoqEQucwxwOZrpm_6-1" edge="1">
          <mxGeometry width="50" height="50" relative="1" as="geometry">
            <mxPoint x="534.75" y="380" as="sourcePoint" />
            <mxPoint x="534.75" y="570" as="targetPoint" />
            <Array as="points">
              <mxPoint x="640" y="380" />
              <mxPoint x="640" y="480" />
              <mxPoint x="640" y="581" />
            </Array>
          </mxGeometry>
        </mxCell>
        <mxCell id="1a4go8-dCpBvtvmLw_rz-0" value="" style="ellipse;fontFamily=Roboto;fontSource=https%3A%2F%2Ffonts.googleapis.com%2Fcss%3Ffamily%3DRoboto;fillColor=#000000;" parent="CbDLqZds7CBD2YCKXWCp-1" vertex="1">
          <mxGeometry x="539.75" y="375" width="10" height="10" as="geometry" />
        </mxCell>
        <mxCell id="ENUgoqEQucwxwOZrpm_6-0" value="" style="ellipse;fontFamily=Roboto;fontSource=https%3A%2F%2Ffonts.googleapis.com%2Fcss%3Ffamily%3DRoboto;fillColor=#000000;" parent="CbDLqZds7CBD2YCKXWCp-1" vertex="1">
          <mxGeometry x="539.75" y="576" width="10" height="10" as="geometry" />
        </mxCell>
        <mxCell id="ENUgoqEQucwxwOZrpm_6-1" value="" style="ellipse;whiteSpace=wrap;html=1;aspect=fixed;fontFamily=Roboto;fontSource=https%3A%2F%2Ffonts.googleapis.com%2Fcss%3Ffamily%3DRoboto;fillColor=#000000;" parent="CbDLqZds7CBD2YCKXWCp-1" vertex="1">
          <mxGeometry x="500.13" y="571" width="20" height="20" as="geometry" />
        </mxCell>
        <mxCell id="dRy3JhYiyEMO6Z1lmoOY-0" value="(1,1)" style="text;html=1;strokeColor=none;fillColor=none;align=center;verticalAlign=middle;whiteSpace=wrap;rounded=0;fontFamily=Roboto;fontSource=https%3A%2F%2Ffonts.googleapis.com%2Fcss%3Ffamily%3DRoboto;" parent="CbDLqZds7CBD2YCKXWCp-1" vertex="1">
          <mxGeometry x="542.5" y="500.5" width="40" height="20" as="geometry" />
        </mxCell>
        <mxCell id="dRy3JhYiyEMO6Z1lmoOY-1" value="(1,1)" style="text;html=1;strokeColor=none;fillColor=none;align=center;verticalAlign=middle;whiteSpace=wrap;rounded=0;fontFamily=Roboto;fontSource=https%3A%2F%2Ffonts.googleapis.com%2Fcss%3Ffamily%3DRoboto;" parent="CbDLqZds7CBD2YCKXWCp-1" vertex="1">
          <mxGeometry x="542.5" y="440.5" width="40" height="20" as="geometry" />
        </mxCell>
        <mxCell id="Yxhiw0Sm9RzYigW6LJ-E-0" value="(1,1)" style="text;html=1;strokeColor=none;fillColor=none;align=center;verticalAlign=middle;whiteSpace=wrap;rounded=0;fontFamily=Roboto;fontSource=https%3A%2F%2Ffonts.googleapis.com%2Fcss%3Ffamily%3DRoboto;" parent="CbDLqZds7CBD2YCKXWCp-1" vertex="1">
          <mxGeometry x="339.5" y="290" width="40" height="20" as="geometry" />
        </mxCell>
        <mxCell id="Yxhiw0Sm9RzYigW6LJ-E-1" value="(1,1)" style="text;html=1;strokeColor=none;fillColor=none;align=center;verticalAlign=middle;whiteSpace=wrap;rounded=0;fontFamily=Roboto;fontSource=https%3A%2F%2Ffonts.googleapis.com%2Fcss%3Ffamily%3DRoboto;" parent="CbDLqZds7CBD2YCKXWCp-1" vertex="1">
          <mxGeometry x="380" y="290" width="40" height="20" as="geometry" />
        </mxCell>
        <mxCell id="Yxhiw0Sm9RzYigW6LJ-E-4" value="(0,1)" style="text;html=1;strokeColor=none;fillColor=none;align=center;verticalAlign=middle;whiteSpace=wrap;rounded=0;fontFamily=Roboto;fontSource=https%3A%2F%2Ffonts.googleapis.com%2Fcss%3Ffamily%3DRoboto;" parent="CbDLqZds7CBD2YCKXWCp-1" vertex="1">
          <mxGeometry x="379.5" y="380" width="40" height="20" as="geometry" />
        </mxCell>
        <mxCell id="FNRLJ4EDZDk3xKdOX3_l-0" value="Recapito telefonico" style="rounded=0;whiteSpace=wrap;html=1;fontFamily=Roboto;fontSource=https%3A%2F%2Ffonts.googleapis.com%2Fcss%3Ffamily%3DRoboto;fillColor=#f8cecc;strokeColor=#b85450;gradientColor=#ea6b66;" parent="CbDLqZds7CBD2YCKXWCp-1" vertex="1">
          <mxGeometry x="419.5" y="680" width="120" height="40" as="geometry" />
        </mxCell>
        <mxCell id="FNRLJ4EDZDk3xKdOX3_l-2" style="edgeStyle=orthogonalEdgeStyle;rounded=0;orthogonalLoop=1;jettySize=auto;html=1;exitX=1;exitY=0.5;exitDx=0;exitDy=0;entryX=0;entryY=0.5;entryDx=0;entryDy=0;endArrow=none;endFill=0;" parent="CbDLqZds7CBD2YCKXWCp-1" source="FNRLJ4EDZDk3xKdOX3_l-1" target="FNRLJ4EDZDk3xKdOX3_l-0" edge="1">
          <mxGeometry relative="1" as="geometry" />
        </mxCell>
        <mxCell id="FNRLJ4EDZDk3xKdOX3_l-1" value="R" style="rhombus;whiteSpace=wrap;html=1;rounded=0;sketch=0;fontFamily=Roboto;fontSource=https%3A%2F%2Ffonts.googleapis.com%2Fcss%3Ffamily%3DRoboto;gradientColor=#ffd966;fillColor=#fff2cc;strokeColor=#d6b656;" parent="CbDLqZds7CBD2YCKXWCp-1" vertex="1">
          <mxGeometry x="352" y="680" width="56" height="40" as="geometry" />
        </mxCell>
        <mxCell id="YnXIAvcI8itFQvQeR9OT-0" value="" style="ellipse;whiteSpace=wrap;html=1;aspect=fixed;fontFamily=Roboto;fontSource=https%3A%2F%2Ffonts.googleapis.com%2Fcss%3Ffamily%3DRoboto;rotation=-90;" parent="CbDLqZds7CBD2YCKXWCp-1" vertex="1">
          <mxGeometry x="550" y="690" width="20" height="20" as="geometry" />
        </mxCell>
        <mxCell id="YnXIAvcI8itFQvQeR9OT-2" value="Numero di telefono" style="text;html=1;strokeColor=none;fillColor=none;align=center;verticalAlign=middle;whiteSpace=wrap;rounded=0;fontFamily=Roboto;fontSource=https%3A%2F%2Ffonts.googleapis.com%2Fcss%3Ffamily%3DRoboto;" parent="CbDLqZds7CBD2YCKXWCp-1" vertex="1">
          <mxGeometry x="574.75" y="690" width="40" height="20" as="geometry" />
        </mxCell>
        <mxCell id="BiT8ddNZWtoE2l7NrCq_-0" value="" style="endArrow=none;html=1;" parent="CbDLqZds7CBD2YCKXWCp-1" edge="1">
          <mxGeometry width="50" height="50" relative="1" as="geometry">
            <mxPoint x="330" y="290" as="sourcePoint" />
            <mxPoint x="440" y="290" as="targetPoint" />
          </mxGeometry>
        </mxCell>
        <mxCell id="BiT8ddNZWtoE2l7NrCq_-1" value="" style="ellipse;fontFamily=Roboto;fontSource=https%3A%2F%2Ffonts.googleapis.com%2Fcss%3Ffamily%3DRoboto;fillColor=#000000;" parent="CbDLqZds7CBD2YCKXWCp-1" vertex="1">
          <mxGeometry x="417" y="285" width="10" height="10" as="geometry" />
        </mxCell>
        <mxCell id="BiT8ddNZWtoE2l7NrCq_-2" value="" style="ellipse;fontFamily=Roboto;fontSource=https%3A%2F%2Ffonts.googleapis.com%2Fcss%3Ffamily%3DRoboto;fillColor=#000000;" parent="CbDLqZds7CBD2YCKXWCp-1" vertex="1">
          <mxGeometry x="333" y="285" width="10" height="10" as="geometry" />
        </mxCell>
        <mxCell id="BiT8ddNZWtoE2l7NrCq_-3" value="" style="ellipse;whiteSpace=wrap;html=1;aspect=fixed;fontFamily=Roboto;fontSource=https%3A%2F%2Ffonts.googleapis.com%2Fcss%3Ffamily%3DRoboto;fillColor=#000000;" parent="CbDLqZds7CBD2YCKXWCp-1" vertex="1">
          <mxGeometry x="440" y="280" width="20" height="20" as="geometry" />
        </mxCell>
        <mxCell id="enR02Zb_3JN6K4YX4FUT-0" value="" style="endArrow=none;html=1;exitX=0.25;exitY=1;exitDx=0;exitDy=0;entryX=1;entryY=0.5;entryDx=0;entryDy=0;fontFamily=Roboto;fontSource=https%3A%2F%2Ffonts.googleapis.com%2Fcss%3Ffamily%3DRoboto;" parent="CbDLqZds7CBD2YCKXWCp-1" source="CbDLqZds7CBD2YCKXWCp-110" target="enR02Zb_3JN6K4YX4FUT-1" edge="1">
          <mxGeometry x="-10" y="501" width="50" height="50" as="geometry">
            <mxPoint x="115" y="561" as="sourcePoint" />
            <mxPoint x="140" y="546" as="targetPoint" />
          </mxGeometry>
        </mxCell>
        <mxCell id="enR02Zb_3JN6K4YX4FUT-1" value="&lt;span style=&quot;color: rgba(0, 0, 0, 0); font-size: 0px;&quot;&gt;%3CmxGraphModel%3E%3Croot%3E%3CmxCell%20id%3D%220%22%2F%3E%3CmxCell%20id%3D%221%22%20parent%3D%220%22%2F%3E%3CmxCell%20id%3D%222%22%20value%3D%22%22%20style%3D%22group%3BfontFamily%3DRoboto%3BfontSource%3Dhttps%253A%252F%252Ffonts.googleapis.com%252Fcss%253Ffamily%253DRoboto%3B%22%20connectable%3D%220%22%20vertex%3D%221%22%20parent%3D%221%22%3E%3CmxGeometry%20x%3D%2250%22%20y%3D%22450%22%20width%3D%22130%22%20height%3D%22140%22%20as%3D%22geometry%22%2F%3E%3C%2FmxCell%3E%3CmxCell%20id%3D%223%22%20value%3D%22Ordine%22%20style%3D%22rounded%3D0%3BwhiteSpace%3Dwrap%3Bhtml%3D1%3BfontFamily%3DRoboto%3BfontSource%3Dhttps%253A%252F%252Ffonts.googleapis.com%252Fcss%253Ffamily%253DRoboto%3BfillColor%3D%23f8cecc%3BstrokeColor%3D%23b85450%3BgradientColor%3D%23ea6b66%3B%22%20vertex%3D%221%22%20parent%3D%222%22%3E%3CmxGeometry%20x%3D%2240%22%20y%3D%2280%22%20width%3D%22120%22%20height%3D%2260%22%20as%3D%22geometry%22%2F%3E%3C%2FmxCell%3E%3CmxCell%20id%3D%224%22%20value%3D%22%22%20style%3D%22group%3BfontFamily%3DRoboto%3BfontSource%3Dhttps%253A%252F%252Ffonts.googleapis.com%252Fcss%253Ffamily%253DRoboto%3B%22%20connectable%3D%220%22%20vertex%3D%221%22%20parent%3D%222%22%3E%3CmxGeometry%20x%3D%2290%22%20width%3D%2240%22%20height%3D%2280%22%20as%3D%22geometry%22%2F%3E%3C%2FmxCell%3E%3CmxCell%20id%3D%225%22%20value%3D%22%22%20style%3D%22ellipse%3BwhiteSpace%3Dwrap%3Bhtml%3D1%3Baspect%3Dfixed%3BfontFamily%3DRoboto%3BfontSource%3Dhttps%253A%252F%252Ffonts.googleapis.com%252Fcss%253Ffamily%253DRoboto%3B%22%20vertex%3D%221%22%20parent%3D%224%22%3E%3CmxGeometry%20x%3D%2230%22%20y%3D%2230%22%20width%3D%2220%22%20height%3D%2220%22%20as%3D%22geometry%22%2F%3E%3C%2FmxCell%3E%3CmxCell%20id%3D%226%22%20value%3D%22%26lt%3Bdiv%26gt%3BData%20emissione%26lt%3B%2Fdiv%26gt%3B%22%20style%3D%22text%3Bhtml%3D1%3BstrokeColor%3Dnone%3BfillColor%3Dnone%3Balign%3Dcenter%3BverticalAlign%3Dmiddle%3BwhiteSpace%3Dwrap%3Brounded%3D0%3BfontFamily%3DRoboto%3BfontSource%3Dhttps%253A%252F%252Ffonts.googleapis.com%252Fcss%253Ffamily%253DRoboto%3B%22%20vertex%3D%221%22%20parent%3D%224%22%3E%3CmxGeometry%20width%3D%2240%22%20height%3D%2220%22%20as%3D%22geometry%22%2F%3E%3C%2FmxCell%3E%3CmxCell%20id%3D%227%22%20value%3D%22%22%20style%3D%22group%3BfontFamily%3DRoboto%3BfontSource%3Dhttps%253A%252F%252Ffonts.googleapis.com%252Fcss%253Ffamily%253DRoboto%3B%22%20connectable%3D%220%22%20vertex%3D%221%22%20parent%3D%222%22%3E%3CmxGeometry%20x%3D%2210%22%20y%3D%2210%22%20width%3D%2260%22%20height%3D%2270%22%20as%3D%22geometry%22%2F%3E%3C%2FmxCell%3E%3CmxCell%20id%3D%228%22%20value%3D%22%22%20style%3D%22ellipse%3BfontFamily%3DRoboto%3BfontSource%3Dhttps%253A%252F%252Ffonts.googleapis.com%252Fcss%253Ffamily%253DRoboto%3BfillColor%3D%23000000%3B%22%20vertex%3D%221%22%20parent%3D%227%22%3E%3CmxGeometry%20x%3D%2210%22%20y%3D%2220%22%20width%3D%2220%22%20height%3D%2220%22%20as%3D%22geometry%22%2F%3E%3C%2FmxCell%3E%3CmxCell%20id%3D%229%22%20value%3D%22Codice%20ordine%22%20style%3D%22text%3Bhtml%3D1%3BstrokeColor%3Dnone%3BfillColor%3Dnone%3Balign%3Dcenter%3BverticalAlign%3Dmiddle%3BwhiteSpace%3Dwrap%3Brounded%3D0%3BfontFamily%3DRoboto%3BfontSource%3Dhttps%253A%252F%252Ffonts.googleapis.com%252Fcss%253Ffamily%253DRoboto%3B%22%20vertex%3D%221%22%20parent%3D%227%22%3E%3CmxGeometry%20x%3D%22-20%22%20y%3D%22-10%22%20width%3D%2280%22%20height%3D%2220%22%20as%3D%22geometry%22%2F%3E%3C%2FmxCell%3E%3CmxCell%20id%3D%2210%22%20value%3D%22%22%20style%3D%22endArrow%3Dnone%3Bhtml%3D1%3BfontFamily%3DRoboto%3BfontSource%3Dhttps%253A%252F%252Ffonts.googleapis.com%252Fcss%253Ffamily%253DRoboto%3BexitX%3D0.25%3BexitY%3D0%3BexitDx%3D0%3BexitDy%3D0%3B%22%20edge%3D%221%22%20parent%3D%222%22%20source%3D%223%22%20target%3D%228%22%3E%3CmxGeometry%20width%3D%2250%22%20height%3D%2250%22%20relative%3D%221%22%20as%3D%22geometry%22%3E%3CmxPoint%20x%3D%2240%22%20y%3D%2280%22%20as%3D%22sourcePoint%22%2F%3E%3CmxPoint%20x%3D%2240%22%20y%3D%2250%22%20as%3D%22targetPoint%22%2F%3E%3C%2FmxGeometry%3E%3C%2FmxCell%3E%3CmxCell%20id%3D%2211%22%20value%3D%22%22%20style%3D%22endArrow%3Dnone%3Bhtml%3D1%3BfontFamily%3DRoboto%3BfontSource%3Dhttps%253A%252F%252Ffonts.googleapis.com%252Fcss%253Ffamily%253DRoboto%3BexitX%3D0.75%3BexitY%3D0%3BexitDx%3D0%3BexitDy%3D0%3BentryX%3D0.5%3BentryY%3D1%3BentryDx%3D0%3BentryDy%3D0%3B%22%20edge%3D%221%22%20parent%3D%222%22%20source%3D%223%22%20target%3D%225%22%3E%3CmxGeometry%20x%3D%22100%22%20y%3D%2210%22%20width%3D%2250%22%20height%3D%2250%22%20as%3D%22geometry%22%3E%3CmxPoint%20x%3D%22120%22%20y%3D%2280%22%20as%3D%22sourcePoint%22%2F%3E%3CmxPoint%20x%3D%22123%22%20y%3D%2246%22%20as%3D%22targetPoint%22%2F%3E%3CArray%20as%3D%22points%22%2F%3E%3C%2FmxGeometry%3E%3C%2FmxCell%3E%3C%2Froot%3E%3C%2FmxGraphModel%3E&lt;/span&gt;" style="ellipse;whiteSpace=wrap;html=1;aspect=fixed;fontFamily=Roboto;fontSource=https%3A%2F%2Ffonts.googleapis.com%2Fcss%3Ffamily%3DRoboto;rotation=-45;" parent="CbDLqZds7CBD2YCKXWCp-1" vertex="1">
          <mxGeometry x="115" y="517" width="20" height="20" as="geometry" />
        </mxCell>
        <mxCell id="enR02Zb_3JN6K4YX4FUT-4" value="&lt;div&gt;Data consegna&lt;/div&gt;" style="text;html=1;strokeColor=none;fillColor=none;align=center;verticalAlign=middle;whiteSpace=wrap;rounded=0;fontFamily=Roboto;fontSource=https%3A%2F%2Ffonts.googleapis.com%2Fcss%3Ffamily%3DRoboto;" parent="CbDLqZds7CBD2YCKXWCp-1" vertex="1">
          <mxGeometry x="75" y="532" width="40" height="20" as="geometry" />
        </mxCell>
        <mxCell id="enR02Zb_3JN6K4YX4FUT-5" value="" style="ellipse;whiteSpace=wrap;html=1;aspect=fixed;fontFamily=Roboto;fontSource=https%3A%2F%2Ffonts.googleapis.com%2Fcss%3Ffamily%3DRoboto;rotation=-180;dashed=1;" parent="CbDLqZds7CBD2YCKXWCp-1" vertex="1">
          <mxGeometry x="230" y="290" width="20" height="20" as="geometry" />
        </mxCell>
      </root>
    </mxGraphModel>
  </diagram>
</mxfile>
